solid Untitled-585cbed7
facet normal 0.9914448613738107 0.1305261922200491 0.0
  outer loop
    vertex 25.314728789585875 39.19573341367523 0.0
    vertex 25.345291551547547 38.96358618880861 0.49999999999999994
    vertex 25.345291551547547 38.96358618880861 0.0
  endloop
endfacet
facet normal 0.9914448613738107 0.1305261922200491 0.0
  outer loop
    vertex 25.345291551547547 38.96358618880861 0.49999999999999994
    vertex 25.314728789585875 39.19573341367523 0.0
    vertex 25.314728789585875 39.19573341367523 0.49999999999999994
  endloop
endfacet
facet normal 0.9914448613738107 -0.1305261922200491 0.0
  outer loop
    vertex 25.345291551547547 38.96358618880861 0.0
    vertex 25.314728789585875 38.731438963942 0.49999999999999994
    vertex 25.314728789585875 38.731438963942 0.0
  endloop
endfacet
facet normal 0.9914448613738107 -0.1305261922200491 0.0
  outer loop
    vertex 25.314728789585875 38.731438963942 0.49999999999999994
    vertex 25.345291551547547 38.96358618880861 0.0
    vertex 25.345291551547547 38.96358618880861 0.49999999999999994
  endloop
endfacet
facet normal 0.9238795325112849 -0.3826834323650944 0.0
  outer loop
    vertex 25.314728789585875 38.731438963942 0.0
    vertex 25.22512330542119 38.51511218880861 0.49999999999999994
    vertex 25.22512330542119 38.51511218880861 0.0
  endloop
endfacet
facet normal 0.9238795325112849 -0.3826834323650944 0.0
  outer loop
    vertex 25.22512330542119 38.51511218880861 0.49999999999999994
    vertex 25.314728789585875 38.731438963942 0.0
    vertex 25.314728789585875 38.731438963942 0.49999999999999994
  endloop
endfacet
facet normal -0.1305261922200491 -0.9914448613738107 -0.0
  outer loop
    vertex 24.448343551547545 38.06663818880861 0.49999999999999994
    vertex 24.21619632668093 38.09720095077029 0.0
    vertex 24.448343551547545 38.06663818880861 0.0
  endloop
endfacet
facet normal -0.1305261922200491 -0.9914448613738107 -0.0
  outer loop
    vertex 24.21619632668093 38.09720095077029 0.0
    vertex 24.448343551547545 38.06663818880861 0.49999999999999994
    vertex 24.21619632668093 38.09720095077029 0.49999999999999994
  endloop
endfacet
facet normal 0.3826834323650841 0.9238795325112891 0.0
  outer loop
    vertex 24.68049077641416 39.82997142684694 0.49999999999999994
    vertex 24.896817551547546 39.74036594268226 0.0
    vertex 24.68049077641416 39.82997142684694 0.0
  endloop
endfacet
facet normal 0.3826834323650841 0.9238795325112891 0.0
  outer loop
    vertex 24.896817551547546 39.74036594268226 0.0
    vertex 24.68049077641416 39.82997142684694 0.49999999999999994
    vertex 24.896817551547546 39.74036594268226 0.49999999999999994
  endloop
endfacet
facet normal 0.923879532511285 0.38268343236509444 0.0
  outer loop
    vertex 25.22512330542119 39.41206018880861 0.0
    vertex 25.314728789585875 39.19573341367523 0.49999999999999994
    vertex 25.314728789585875 39.19573341367523 0.0
  endloop
endfacet
facet normal 0.923879532511285 0.38268343236509444 0.0
  outer loop
    vertex 25.314728789585875 39.19573341367523 0.49999999999999994
    vertex 25.22512330542119 39.41206018880861 0.0
    vertex 25.22512330542119 39.41206018880861 0.49999999999999994
  endloop
endfacet
facet normal 0.79335334029124 0.6087614290087142 0.0
  outer loop
    vertex 25.08258156471926 39.59782420198032 0.0
    vertex 25.22512330542119 39.41206018880861 0.49999999999999994
    vertex 25.22512330542119 39.41206018880861 0.0
  endloop
endfacet
facet normal 0.79335334029124 0.6087614290087142 0.0
  outer loop
    vertex 25.22512330542119 39.41206018880861 0.49999999999999994
    vertex 25.08258156471926 39.59782420198032 0.0
    vertex 25.08258156471926 39.59782420198032 0.49999999999999994
  endloop
endfacet
facet normal 0.0 1.0 0.0
  outer loop
    vertex 28.7896948703431 39.5130554834549 0.49999999999999994
    vertex 34.5844258703431 39.5130554834549 0.0
    vertex 28.7896948703431 39.5130554834549 0.0
  endloop
endfacet
facet normal 0.0 1.0 0.0
  outer loop
    vertex 34.5844258703431 39.5130554834549 0.0
    vertex 28.7896948703431 39.5130554834549 0.49999999999999994
    vertex 34.5844258703431 39.5130554834549 0.49999999999999994
  endloop
endfacet
facet normal 1.0 0.0 0.0
  outer loop
    vertex 34.5844258703431 39.5130554834549 0.0
    vertex 34.5844258703431 38.224335483454894 0.49999999999999994
    vertex 34.5844258703431 38.224335483454894 0.0
  endloop
endfacet
facet normal 1.0 0.0 0.0
  outer loop
    vertex 34.5844258703431 38.224335483454894 0.49999999999999994
    vertex 34.5844258703431 39.5130554834549 0.0
    vertex 34.5844258703431 39.5130554834549 0.49999999999999994
  endloop
endfacet
facet normal 7.000907053993192e-19 8.912932870979277e-19 -1.0
  outer loop
    vertex 20.296623734435286 39.49482053786033 0.0
    vertex 14.501892734435284 38.20610053786033 0.0
    vertex 14.501892734435284 39.49482053786033 0.0
  endloop
endfacet
facet normal 7.000907053993192e-19 8.912932870979277e-19 -1.0
  outer loop
    vertex 14.501892734435284 38.20610053786033 0.0
    vertex 20.296623734435286 39.49482053786033 0.0
    vertex 18.151598510143938 38.20610053786033 0.0
  endloop
endfacet
facet normal 7.000907053993192e-19 8.912932870979277e-19 -1.0
  outer loop
    vertex 18.151598510143938 38.20610053786033 0.0
    vertex 20.296623734435286 39.49482053786033 0.0
    vertex 19.061071589124087 38.20610053786033 0.0
  endloop
endfacet
facet normal 7.000907053993192e-19 8.912932870979277e-19 -1.0
  outer loop
    vertex 19.061071589124087 38.20610053786033 0.0
    vertex 20.296623734435286 39.49482053786033 0.0
    vertex 20.296623734435286 38.20610053786033 0.0
  endloop
endfacet
facet normal 7.000907053993192e-19 8.912932870979277e-19 -1.0
  outer loop
    vertex 23.58195831350922 39.19573341367523 0.0
    vertex 23.58195831350922 38.731438963942 0.0
    vertex 23.551395551547547 38.96358618880861 0.0
  endloop
endfacet
facet normal 7.000907053993192e-19 8.912932870979277e-19 -1.0
  outer loop
    vertex 23.58195831350922 38.731438963942 0.0
    vertex 23.58195831350922 39.19573341367523 0.0
    vertex 23.6715637976739 39.41206018880861 0.0
  endloop
endfacet
facet normal 7.000907053993192e-19 8.912932870979277e-19 -1.0
  outer loop
    vertex 23.58195831350922 38.731438963942 0.0
    vertex 23.6715637976739 39.41206018880861 0.0
    vertex 23.614019672800303 38.65403599551334 0.0
  endloop
endfacet
facet normal 7.000907053993192e-19 8.912932870979277e-19 -1.0
  outer loop
    vertex 25.314728789585875 39.19573341367523 0.0
    vertex 25.22512330542119 38.51511218880861 0.0
    vertex 25.22512330542119 39.41206018880861 0.0
  endloop
endfacet
facet normal 7.000907053993192e-19 8.912932870979277e-19 -1.0
  outer loop
    vertex 25.22512330542119 38.51511218880861 0.0
    vertex 25.314728789585875 39.19573341367523 0.0
    vertex 25.314728789585875 38.731438963942 0.0
  endloop
endfacet
facet normal 7.000907053993192e-19 8.912932870979277e-19 -1.0
  outer loop
    vertex 25.314728789585875 38.731438963942 0.0
    vertex 25.314728789585875 39.19573341367523 0.0
    vertex 25.345291551547547 38.96358618880861 0.0
  endloop
endfacet
facet normal 7.000907053993192e-19 8.912932870979277e-19 -1.0
  outer loop
    vertex 34.5844258703431 39.5130554834549 0.0
    vertex 28.7896948703431 38.224335483454894 0.0
    vertex 28.7896948703431 39.5130554834549 0.0
  endloop
endfacet
facet normal 7.000907053993192e-19 8.912932870979277e-19 -1.0
  outer loop
    vertex 28.7896948703431 38.224335483454894 0.0
    vertex 34.5844258703431 39.5130554834549 0.0
    vertex 30.065876609755378 38.21270740649282 6.517170789227746e-17
  endloop
endfacet
facet normal 7.000907053993192e-19 8.912932870979277e-19 -1.0
  outer loop
    vertex 30.065876609755378 38.21270740649282 6.517170789227746e-17
    vertex 34.5844258703431 39.5130554834549 0.0
    vertex 30.915655156515786 38.21687053700734 5.215570125075309e-17
  endloop
endfacet
facet normal 7.000907053993192e-19 8.912932870979277e-19 -1.0
  outer loop
    vertex 30.915655156515786 38.21687053700734 5.215570125075309e-17
    vertex 34.5844258703431 39.5130554834549 0.0
    vertex 32.43940064605175 38.224335483454894 0.0
  endloop
endfacet
facet normal 7.000907053993192e-19 8.912932870979277e-19 -1.0
  outer loop
    vertex 32.43940064605175 38.224335483454894 0.0
    vertex 34.5844258703431 39.5130554834549 0.0
    vertex 33.3488737250319 38.224335483454894 0.0
  endloop
endfacet
facet normal 7.000907053993192e-19 8.912932870979277e-19 -1.0
  outer loop
    vertex 33.3488737250319 38.224335483454894 0.0
    vertex 34.5844258703431 39.5130554834549 0.0
    vertex 34.5844258703431 38.224335483454894 0.0
  endloop
endfacet
facet normal 7.000907053993192e-19 8.912932870979277e-19 -1.0
  outer loop
    vertex 19.061071589124087 38.20610053786033 0.0
    vertex 21.135938233952658 35.05137340071227 0.0
    vertex 18.151598510143938 38.20610053786033 0.0
  endloop
endfacet
facet normal 7.000907053993192e-19 8.912932870979277e-19 -1.0
  outer loop
    vertex 21.135938233952658 35.05137340071227 0.0
    vertex 19.061071589124087 38.20610053786033 0.0
    vertex 21.169276417020754 35.97753020179143 0.0
  endloop
endfacet
facet normal 7.000907053993192e-19 8.912932870979277e-19 -1.0
  outer loop
    vertex 21.135938233952658 35.05137340071227 0.0
    vertex 21.169276417020754 35.97753020179143 0.0
    vertex 23.999869551547544 38.186806434934965 0.0
  endloop
endfacet
facet normal 7.000907053993192e-19 8.912932870979277e-19 -1.0
  outer loop
    vertex 23.999869551547544 38.186806434934965 0.0
    vertex 21.169276417020754 35.97753020179143 0.0
    vertex 23.614019672800303 38.65403599551334 0.0
  endloop
endfacet
facet normal 7.000907053993192e-19 8.912932870979277e-19 -1.0
  outer loop
    vertex 23.999869551547544 38.186806434934965 0.0
    vertex 23.614019672800303 38.65403599551334 0.0
    vertex 23.6715637976739 39.41206018880861 0.0
  endloop
endfacet
facet normal 7.000907053993192e-19 8.912932870979277e-19 -1.0
  outer loop
    vertex 23.999869551547544 38.186806434934965 0.0
    vertex 23.6715637976739 39.41206018880861 0.0
    vertex 23.814105538375834 39.59782420198032 0.0
  endloop
endfacet
facet normal 7.000907053993192e-19 8.912932870979277e-19 -1.0
  outer loop
    vertex 23.999869551547544 38.186806434934965 0.0
    vertex 23.814105538375834 39.59782420198032 0.0
    vertex 23.999869551547544 39.74036594268226 0.0
  endloop
endfacet
facet normal 7.000907053993192e-19 8.912932870979277e-19 -1.0
  outer loop
    vertex 23.999869551547544 38.186806434934965 0.0
    vertex 23.999869551547544 39.74036594268226 0.0
    vertex 24.21619632668093 39.82997142684694 0.0
  endloop
endfacet
facet normal 7.000907053993192e-19 8.912932870979277e-19 -1.0
  outer loop
    vertex 23.999869551547544 38.186806434934965 0.0
    vertex 24.21619632668093 39.82997142684694 0.0
    vertex 24.21619632668093 38.09720095077029 0.0
  endloop
endfacet
facet normal 7.000907053993192e-19 8.912932870979277e-19 -1.0
  outer loop
    vertex 24.21619632668093 38.09720095077029 0.0
    vertex 24.21619632668093 39.82997142684694 0.0
    vertex 24.448343551547545 39.86053418880861 0.0
  endloop
endfacet
facet normal 7.000907053993192e-19 8.912932870979277e-19 -1.0
  outer loop
    vertex 24.21619632668093 38.09720095077029 0.0
    vertex 24.448343551547545 39.86053418880861 0.0
    vertex 24.448343551547545 38.06663818880861 0.0
  endloop
endfacet
facet normal 7.000907053993192e-19 8.912932870979277e-19 -1.0
  outer loop
    vertex 24.448343551547545 38.06663818880861 0.0
    vertex 24.448343551547545 39.86053418880861 0.0
    vertex 24.68049077641416 39.82997142684694 0.0
  endloop
endfacet
facet normal 7.000907053993192e-19 8.912932870979277e-19 -1.0
  outer loop
    vertex 24.448343551547545 38.06663818880861 0.0
    vertex 24.68049077641416 39.82997142684694 0.0
    vertex 24.68049077641416 38.09720095077029 0.0
  endloop
endfacet
facet normal 7.000907053993192e-19 8.912932870979277e-19 -1.0
  outer loop
    vertex 24.68049077641416 38.09720095077029 0.0
    vertex 24.68049077641416 39.82997142684694 0.0
    vertex 24.896817551547546 39.74036594268226 0.0
  endloop
endfacet
facet normal 7.000907053993192e-19 8.912932870979277e-19 -1.0
  outer loop
    vertex 24.68049077641416 38.09720095077029 0.0
    vertex 24.896817551547546 39.74036594268226 0.0
    vertex 24.774862715242808 38.13629108774055 0.0
  endloop
endfacet
facet normal 7.000907053993192e-19 8.912932870979277e-19 -1.0
  outer loop
    vertex 24.774862715242808 38.13629108774055 0.0
    vertex 24.896817551547546 39.74036594268226 0.0
    vertex 25.22512330542119 38.51511218880861 0.0
  endloop
endfacet
facet normal 7.000907053993192e-19 8.912932870979277e-19 -1.0
  outer loop
    vertex 24.774862715242808 38.13629108774055 0.0
    vertex 25.22512330542119 38.51511218880861 0.0
    vertex 27.771715557418045 35.05137340071227 0.0
  endloop
endfacet
facet normal 7.000907053993192e-19 8.912932870979277e-19 -1.0
  outer loop
    vertex 25.22512330542119 38.51511218880861 0.0
    vertex 24.896817551547546 39.74036594268226 0.0
    vertex 25.08258156471926 39.59782420198032 0.0
  endloop
endfacet
facet normal 7.000907053993192e-19 8.912932870979277e-19 -1.0
  outer loop
    vertex 25.22512330542119 38.51511218880861 0.0
    vertex 25.08258156471926 39.59782420198032 0.0
    vertex 25.22512330542119 39.41206018880861 0.0
  endloop
endfacet
facet normal 7.000907053993192e-19 8.912932870979277e-19 -1.0
  outer loop
    vertex 27.771715557418045 35.05137340071227 0.0
    vertex 25.22512330542119 38.51511218880861 0.0
    vertex 27.776451486820292 35.90758402801163 -3.1670748975098494e-17
  endloop
endfacet
facet normal 7.000907053993192e-19 8.912932870979277e-19 -1.0
  outer loop
    vertex 27.771715557418045 35.05137340071227 0.0
    vertex 27.776451486820292 35.90758402801163 -3.1670748975098494e-17
    vertex 30.915655156515786 38.21687053700734 5.215570125075309e-17
  endloop
endfacet
facet normal 7.000907053993192e-19 8.912932870979277e-19 -1.0
  outer loop
    vertex 30.915655156515786 38.21687053700734 5.215570125075309e-17
    vertex 27.776451486820292 35.90758402801163 -3.1670748975098494e-17
    vertex 30.065876609755378 38.21270740649282 6.517170789227746e-17
  endloop
endfacet
facet normal -0.003954862695185178 -0.999992179499951 -7.014032049632605e-19
  outer loop
    vertex 30.065876609755378 38.21270740649282 6.517170789227746e-17
    vertex 28.7896948703431 38.224335483454894 0.49999999999999994
    vertex 28.7896948703431 38.224335483454894 0.0
  endloop
endfacet
facet normal -0.003954862695185178 -0.999992179499951 -7.014032049632605e-19
  outer loop
    vertex 28.7896948703431 38.224335483454894 0.49999999999999994
    vertex 30.065876609755378 38.21270740649282 6.517170789227746e-17
    vertex 30.065876609755378 38.21270740649282 0.5000000000000001
  endloop
endfacet
facet normal -2.2931258240848515e-18 -6.211920269391853e-18 1.0
  outer loop
    vertex 23.58195831350922 38.731438963942 0.49999999999999994
    vertex 23.58195831350922 39.19573341367523 0.49999999999999994
    vertex 23.551395551547547 38.96358618880861 0.49999999999999994
  endloop
endfacet
facet normal -2.2931258240848515e-18 -6.211920269391853e-18 1.0
  outer loop
    vertex 23.58195831350922 39.19573341367523 0.49999999999999994
    vertex 23.58195831350922 38.731438963942 0.49999999999999994
    vertex 23.614019672800303 38.65403599551334 0.49999999999999994
  endloop
endfacet
facet normal -2.2931258240848515e-18 -6.211920269391853e-18 1.0
  outer loop
    vertex 23.58195831350922 39.19573341367523 0.49999999999999994
    vertex 23.614019672800303 38.65403599551334 0.49999999999999994
    vertex 23.6715637976739 39.41206018880861 0.49999999999999994
  endloop
endfacet
facet normal -2.2931258240848515e-18 -6.211920269391853e-18 1.0
  outer loop
    vertex 18.151598510143938 38.20610053786033 0.49999999999999994
    vertex 14.501892734435284 39.49482053786033 0.49999999999999994
    vertex 14.501892734435284 38.20610053786033 0.49999999999999994
  endloop
endfacet
facet normal -2.2931258240848515e-18 -6.211920269391853e-18 1.0
  outer loop
    vertex 14.501892734435284 39.49482053786033 0.49999999999999994
    vertex 18.151598510143938 38.20610053786033 0.49999999999999994
    vertex 20.296623734435286 39.49482053786033 0.49999999999999994
  endloop
endfacet
facet normal -2.2931258240848515e-18 -6.211920269391853e-18 1.0
  outer loop
    vertex 20.296623734435286 39.49482053786033 0.49999999999999994
    vertex 18.151598510143938 38.20610053786033 0.49999999999999994
    vertex 19.061071589124087 38.20610053786033 0.49999999999999994
  endloop
endfacet
facet normal -2.2931258240848515e-18 -6.211920269391853e-18 1.0
  outer loop
    vertex 20.296623734435286 39.49482053786033 0.49999999999999994
    vertex 19.061071589124087 38.20610053786033 0.49999999999999994
    vertex 20.296623734435286 38.20610053786033 0.49999999999999994
  endloop
endfacet
facet normal -2.2931258240848515e-18 -6.211920269391853e-18 1.0
  outer loop
    vertex 21.135938233952658 35.05137340071227 0.49999999999999994
    vertex 19.061071589124087 38.20610053786033 0.49999999999999994
    vertex 18.151598510143938 38.20610053786033 0.49999999999999994
  endloop
endfacet
facet normal -2.2931258240848515e-18 -6.211920269391853e-18 1.0
  outer loop
    vertex 19.061071589124087 38.20610053786033 0.49999999999999994
    vertex 21.135938233952658 35.05137340071227 0.49999999999999994
    vertex 21.169276417020754 35.97753020179143 0.49999999999999994
  endloop
endfacet
facet normal -2.2931258240848515e-18 -6.211920269391853e-18 1.0
  outer loop
    vertex 21.169276417020754 35.97753020179143 0.49999999999999994
    vertex 21.135938233952658 35.05137340071227 0.49999999999999994
    vertex 23.999869551547544 38.186806434934965 0.49999999999999994
  endloop
endfacet
facet normal -2.2931258240848515e-18 -6.211920269391853e-18 1.0
  outer loop
    vertex 21.169276417020754 35.97753020179143 0.49999999999999994
    vertex 23.999869551547544 38.186806434934965 0.49999999999999994
    vertex 23.614019672800303 38.65403599551334 0.49999999999999994
  endloop
endfacet
facet normal -2.2931258240848515e-18 -6.211920269391853e-18 1.0
  outer loop
    vertex 23.614019672800303 38.65403599551334 0.49999999999999994
    vertex 23.999869551547544 38.186806434934965 0.49999999999999994
    vertex 23.6715637976739 39.41206018880861 0.49999999999999994
  endloop
endfacet
facet normal -2.2931258240848515e-18 -6.211920269391853e-18 1.0
  outer loop
    vertex 23.6715637976739 39.41206018880861 0.49999999999999994
    vertex 23.999869551547544 38.186806434934965 0.49999999999999994
    vertex 23.814105538375834 39.59782420198032 0.49999999999999994
  endloop
endfacet
facet normal -2.2931258240848515e-18 -6.211920269391853e-18 1.0
  outer loop
    vertex 23.814105538375834 39.59782420198032 0.49999999999999994
    vertex 23.999869551547544 38.186806434934965 0.49999999999999994
    vertex 23.999869551547544 39.74036594268226 0.49999999999999994
  endloop
endfacet
facet normal -2.2931258240848515e-18 -6.211920269391853e-18 1.0
  outer loop
    vertex 23.999869551547544 39.74036594268226 0.49999999999999994
    vertex 23.999869551547544 38.186806434934965 0.49999999999999994
    vertex 24.21619632668093 38.09720095077029 0.49999999999999994
  endloop
endfacet
facet normal -2.2931258240848515e-18 -6.211920269391853e-18 1.0
  outer loop
    vertex 23.999869551547544 39.74036594268226 0.49999999999999994
    vertex 24.21619632668093 38.09720095077029 0.49999999999999994
    vertex 24.21619632668093 39.82997142684694 0.49999999999999994
  endloop
endfacet
facet normal -2.2931258240848515e-18 -6.211920269391853e-18 1.0
  outer loop
    vertex 24.21619632668093 39.82997142684694 0.49999999999999994
    vertex 24.21619632668093 38.09720095077029 0.49999999999999994
    vertex 24.448343551547545 38.06663818880861 0.49999999999999994
  endloop
endfacet
facet normal -2.2931258240848515e-18 -6.211920269391853e-18 1.0
  outer loop
    vertex 24.21619632668093 39.82997142684694 0.49999999999999994
    vertex 24.448343551547545 38.06663818880861 0.49999999999999994
    vertex 24.448343551547545 39.86053418880861 0.49999999999999994
  endloop
endfacet
facet normal -2.2931258240848515e-18 -6.211920269391853e-18 1.0
  outer loop
    vertex 24.448343551547545 39.86053418880861 0.49999999999999994
    vertex 24.448343551547545 38.06663818880861 0.49999999999999994
    vertex 24.68049077641416 38.09720095077029 0.49999999999999994
  endloop
endfacet
facet normal -2.2931258240848515e-18 -6.211920269391853e-18 1.0
  outer loop
    vertex 24.448343551547545 39.86053418880861 0.49999999999999994
    vertex 24.68049077641416 38.09720095077029 0.49999999999999994
    vertex 24.68049077641416 39.82997142684694 0.49999999999999994
  endloop
endfacet
facet normal -2.2931258240848515e-18 -6.211920269391853e-18 1.0
  outer loop
    vertex 24.68049077641416 39.82997142684694 0.49999999999999994
    vertex 24.68049077641416 38.09720095077029 0.49999999999999994
    vertex 24.774862715242808 38.13629108774055 0.49999999999999994
  endloop
endfacet
facet normal -2.2931258240848515e-18 -6.211920269391853e-18 1.0
  outer loop
    vertex 24.68049077641416 39.82997142684694 0.49999999999999994
    vertex 24.774862715242808 38.13629108774055 0.49999999999999994
    vertex 24.896817551547546 39.74036594268226 0.49999999999999994
  endloop
endfacet
facet normal -2.2931258240848515e-18 -6.211920269391853e-18 1.0
  outer loop
    vertex 24.896817551547546 39.74036594268226 0.49999999999999994
    vertex 24.774862715242808 38.13629108774055 0.49999999999999994
    vertex 25.22512330542119 38.51511218880861 0.49999999999999994
  endloop
endfacet
facet normal -2.2931258240848515e-18 -6.211920269391853e-18 1.0
  outer loop
    vertex 25.22512330542119 38.51511218880861 0.49999999999999994
    vertex 24.774862715242808 38.13629108774055 0.49999999999999994
    vertex 27.771715557418045 35.05137340071227 0.49999999999999994
  endloop
endfacet
facet normal -2.2931258240848515e-18 -6.211920269391853e-18 1.0
  outer loop
    vertex 24.896817551547546 39.74036594268226 0.49999999999999994
    vertex 25.22512330542119 38.51511218880861 0.49999999999999994
    vertex 25.08258156471926 39.59782420198032 0.49999999999999994
  endloop
endfacet
facet normal -2.2931258240848515e-18 -6.211920269391853e-18 1.0
  outer loop
    vertex 25.22512330542119 38.51511218880861 0.49999999999999994
    vertex 27.771715557418045 35.05137340071227 0.49999999999999994
    vertex 27.776451486820292 35.90758402801163 0.4999999999999998
  endloop
endfacet
facet normal -2.2931258240848515e-18 -6.211920269391853e-18 1.0
  outer loop
    vertex 27.776451486820292 35.90758402801163 0.4999999999999998
    vertex 27.771715557418045 35.05137340071227 0.49999999999999994
    vertex 30.915655156515786 38.21687053700734 0.5000000000000001
  endloop
endfacet
facet normal -2.2931258240848515e-18 -6.211920269391853e-18 1.0
  outer loop
    vertex 27.776451486820292 35.90758402801163 0.4999999999999998
    vertex 30.915655156515786 38.21687053700734 0.5000000000000001
    vertex 30.065876609755378 38.21270740649282 0.5000000000000001
  endloop
endfacet
facet normal -2.2931258240848515e-18 -6.211920269391853e-18 1.0
  outer loop
    vertex 30.065876609755378 38.21270740649282 0.5000000000000001
    vertex 28.7896948703431 39.5130554834549 0.49999999999999994
    vertex 28.7896948703431 38.224335483454894 0.49999999999999994
  endloop
endfacet
facet normal -2.2931258240848515e-18 -6.211920269391853e-18 1.0
  outer loop
    vertex 28.7896948703431 39.5130554834549 0.49999999999999994
    vertex 30.065876609755378 38.21270740649282 0.5000000000000001
    vertex 34.5844258703431 39.5130554834549 0.49999999999999994
  endloop
endfacet
facet normal -2.2931258240848515e-18 -6.211920269391853e-18 1.0
  outer loop
    vertex 34.5844258703431 39.5130554834549 0.49999999999999994
    vertex 30.065876609755378 38.21270740649282 0.5000000000000001
    vertex 30.915655156515786 38.21687053700734 0.5000000000000001
  endloop
endfacet
facet normal -2.2931258240848515e-18 -6.211920269391853e-18 1.0
  outer loop
    vertex 34.5844258703431 39.5130554834549 0.49999999999999994
    vertex 30.915655156515786 38.21687053700734 0.5000000000000001
    vertex 34.5844258703431 38.224335483454894 0.49999999999999994
  endloop
endfacet
facet normal -2.2931258240848515e-18 -6.211920269391853e-18 1.0
  outer loop
    vertex 25.22512330542119 38.51511218880861 0.49999999999999994
    vertex 25.22512330542119 39.41206018880861 0.49999999999999994
    vertex 25.08258156471926 39.59782420198032 0.49999999999999994
  endloop
endfacet
facet normal -2.2931258240848515e-18 -6.211920269391853e-18 1.0
  outer loop
    vertex 25.22512330542119 39.41206018880861 0.49999999999999994
    vertex 25.22512330542119 38.51511218880861 0.49999999999999994
    vertex 25.314728789585875 38.731438963942 0.49999999999999994
  endloop
endfacet
facet normal -2.2931258240848515e-18 -6.211920269391853e-18 1.0
  outer loop
    vertex 25.22512330542119 39.41206018880861 0.49999999999999994
    vertex 25.314728789585875 38.731438963942 0.49999999999999994
    vertex 25.314728789585875 39.19573341367523 0.49999999999999994
  endloop
endfacet
facet normal -2.2931258240848515e-18 -6.211920269391853e-18 1.0
  outer loop
    vertex 25.314728789585875 39.19573341367523 0.49999999999999994
    vertex 25.314728789585875 38.731438963942 0.49999999999999994
    vertex 25.345291551547547 38.96358618880861 0.49999999999999994
  endloop
endfacet
facet normal 0.1305261922200491 0.9914448613738107 0.0
  outer loop
    vertex 24.448343551547545 39.86053418880861 0.49999999999999994
    vertex 24.68049077641416 39.82997142684694 0.0
    vertex 24.448343551547545 39.86053418880861 0.0
  endloop
endfacet
facet normal 0.1305261922200491 0.9914448613738107 0.0
  outer loop
    vertex 24.68049077641416 39.82997142684694 0.0
    vertex 24.448343551547545 39.86053418880861 0.49999999999999994
    vertex 24.68049077641416 39.82997142684694 0.49999999999999994
  endloop
endfacet
facet normal -0.6087614290087218 0.7933533402912343 0.0
  outer loop
    vertex 23.814105538375834 39.59782420198032 0.49999999999999994
    vertex 23.999869551547544 39.74036594268226 0.0
    vertex 23.814105538375834 39.59782420198032 0.0
  endloop
endfacet
facet normal -0.6087614290087218 0.7933533402912343 0.0
  outer loop
    vertex 23.999869551547544 39.74036594268226 0.0
    vertex 23.814105538375834 39.59782420198032 0.49999999999999994
    vertex 23.999869551547544 39.74036594268226 0.49999999999999994
  endloop
endfacet
facet normal -0.79335334029124 0.6087614290087142 0.0
  outer loop
    vertex 23.814105538375834 39.59782420198032 0.49999999999999994
    vertex 23.6715637976739 39.41206018880861 0.0
    vertex 23.6715637976739 39.41206018880861 0.49999999999999994
  endloop
endfacet
facet normal -0.79335334029124 0.6087614290087142 0.0
  outer loop
    vertex 23.6715637976739 39.41206018880861 0.0
    vertex 23.814105538375834 39.59782420198032 0.49999999999999994
    vertex 23.814105538375834 39.59782420198032 0.0
  endloop
endfacet
facet normal -0.923879532511285 0.38268343236509444 0.0
  outer loop
    vertex 23.6715637976739 39.41206018880861 0.49999999999999994
    vertex 23.58195831350922 39.19573341367523 0.0
    vertex 23.58195831350922 39.19573341367523 0.49999999999999994
  endloop
endfacet
facet normal -0.923879532511285 0.38268343236509444 0.0
  outer loop
    vertex 23.58195831350922 39.19573341367523 0.0
    vertex 23.6715637976739 39.41206018880861 0.49999999999999994
    vertex 23.6715637976739 39.41206018880861 0.0
  endloop
endfacet
facet normal -0.9914448613738107 0.1305261922200491 0.0
  outer loop
    vertex 23.58195831350922 39.19573341367523 0.49999999999999994
    vertex 23.551395551547547 38.96358618880861 0.0
    vertex 23.551395551547547 38.96358618880861 0.49999999999999994
  endloop
endfacet
facet normal -0.9914448613738107 0.1305261922200491 0.0
  outer loop
    vertex 23.551395551547547 38.96358618880861 0.0
    vertex 23.58195831350922 39.19573341367523 0.49999999999999994
    vertex 23.58195831350922 39.19573341367523 0.0
  endloop
endfacet
facet normal -0.9914448613738107 -0.1305261922200491 -0.0
  outer loop
    vertex 23.551395551547547 38.96358618880861 0.49999999999999994
    vertex 23.58195831350922 38.731438963942 0.0
    vertex 23.58195831350922 38.731438963942 0.49999999999999994
  endloop
endfacet
facet normal -0.9914448613738107 -0.1305261922200491 -0.0
  outer loop
    vertex 23.58195831350922 38.731438963942 0.0
    vertex 23.551395551547547 38.96358618880861 0.49999999999999994
    vertex 23.551395551547547 38.96358618880861 0.0
  endloop
endfacet
facet normal -0.9238795325112849 -0.3826834323650944 -4.4613481605594346e-18
  outer loop
    vertex 23.58195831350922 38.731438963942 0.49999999999999994
    vertex 23.614019672800303 38.65403599551334 0.0
    vertex 23.614019672800303 38.65403599551334 0.49999999999999994
  endloop
endfacet
facet normal -0.9238795325112849 -0.3826834323650944 -4.4613481605594346e-18
  outer loop
    vertex 23.614019672800303 38.65403599551334 0.0
    vertex 23.58195831350922 38.731438963942 0.49999999999999994
    vertex 23.58195831350922 38.731438963942 0.0
  endloop
endfacet
facet normal -0.3826834323650842 -0.9238795325112892 0.0
  outer loop
    vertex 24.21619632668093 38.09720095077029 0.49999999999999994
    vertex 23.999869551547544 38.186806434934965 0.0
    vertex 24.21619632668093 38.09720095077029 0.0
  endloop
endfacet
facet normal -0.3826834323650842 -0.9238795325112892 0.0
  outer loop
    vertex 23.999869551547544 38.186806434934965 0.0
    vertex 24.21619632668093 38.09720095077029 0.49999999999999994
    vertex 23.999869551547544 38.186806434934965 0.49999999999999994
  endloop
endfacet
facet normal 0.3826834323650845 -0.923879532511289 0.0
  outer loop
    vertex 24.774862715242808 38.13629108774055 0.49999999999999994
    vertex 24.68049077641416 38.09720095077029 0.0
    vertex 24.774862715242808 38.13629108774055 0.0
  endloop
endfacet
facet normal 0.3826834323650845 -0.923879532511289 0.0
  outer loop
    vertex 24.68049077641416 38.09720095077029 0.0
    vertex 24.774862715242808 38.13629108774055 0.49999999999999994
    vertex 24.68049077641416 38.09720095077029 0.49999999999999994
  endloop
endfacet
facet normal 0.6087614290087218 0.7933533402912343 0.0
  outer loop
    vertex 24.896817551547546 39.74036594268226 0.49999999999999994
    vertex 25.08258156471926 39.59782420198032 0.0
    vertex 24.896817551547546 39.74036594268226 0.0
  endloop
endfacet
facet normal 0.6087614290087218 0.7933533402912343 0.0
  outer loop
    vertex 25.08258156471926 39.59782420198032 0.0
    vertex 24.896817551547546 39.74036594268226 0.49999999999999994
    vertex 25.08258156471926 39.59782420198032 0.49999999999999994
  endloop
endfacet
facet normal 0.0 -1.0 0.0
  outer loop
    vertex 18.151598510143938 38.20610053786033 0.49999999999999994
    vertex 14.501892734435284 38.20610053786033 0.0
    vertex 18.151598510143938 38.20610053786033 0.0
  endloop
endfacet
facet normal 0.0 -1.0 0.0
  outer loop
    vertex 14.501892734435284 38.20610053786033 0.0
    vertex 18.151598510143938 38.20610053786033 0.49999999999999994
    vertex 14.501892734435284 38.20610053786033 0.49999999999999994
  endloop
endfacet
facet normal -0.1305261922200491 0.9914448613738107 0.0
  outer loop
    vertex 24.21619632668093 39.82997142684694 0.49999999999999994
    vertex 24.448343551547545 39.86053418880861 0.0
    vertex 24.21619632668093 39.82997142684694 0.0
  endloop
endfacet
facet normal -0.1305261922200491 0.9914448613738107 0.0
  outer loop
    vertex 24.448343551547545 39.86053418880861 0.0
    vertex 24.21619632668093 39.82997142684694 0.49999999999999994
    vertex 24.448343551547545 39.86053418880861 0.49999999999999994
  endloop
endfacet
facet normal -0.3826834323650841 0.9238795325112891 0.0
  outer loop
    vertex 23.999869551547544 39.74036594268226 0.49999999999999994
    vertex 24.21619632668093 39.82997142684694 0.0
    vertex 23.999869551547544 39.74036594268226 0.0
  endloop
endfacet
facet normal -0.3826834323650841 0.9238795325112891 0.0
  outer loop
    vertex 24.21619632668093 39.82997142684694 0.0
    vertex 23.999869551547544 39.74036594268226 0.49999999999999994
    vertex 24.21619632668093 39.82997142684694 0.49999999999999994
  endloop
endfacet
facet normal -1.0 0.0 0.0
  outer loop
    vertex 14.501892734435284 39.49482053786033 0.49999999999999994
    vertex 14.501892734435284 38.20610053786033 0.0
    vertex 14.501892734435284 38.20610053786033 0.49999999999999994
  endloop
endfacet
facet normal -1.0 0.0 0.0
  outer loop
    vertex 14.501892734435284 38.20610053786033 0.0
    vertex 14.501892734435284 39.49482053786033 0.49999999999999994
    vertex 14.501892734435284 39.49482053786033 0.0
  endloop
endfacet
facet normal 0.1305261922200491 -0.9914448613738107 0.0
  outer loop
    vertex 24.68049077641416 38.09720095077029 0.49999999999999994
    vertex 24.448343551547545 38.06663818880861 0.0
    vertex 24.68049077641416 38.09720095077029 0.0
  endloop
endfacet
facet normal 0.1305261922200491 -0.9914448613738107 0.0
  outer loop
    vertex 24.448343551547545 38.06663818880861 0.0
    vertex 24.68049077641416 38.09720095077029 0.49999999999999994
    vertex 24.448343551547545 38.06663818880861 0.49999999999999994
  endloop
endfacet
facet normal 0.0 1.0 0.0
  outer loop
    vertex 14.501892734435284 39.49482053786033 0.49999999999999994
    vertex 20.296623734435286 39.49482053786033 0.0
    vertex 14.501892734435284 39.49482053786033 0.0
  endloop
endfacet
facet normal 0.0 1.0 0.0
  outer loop
    vertex 20.296623734435286 39.49482053786033 0.0
    vertex 14.501892734435284 39.49482053786033 0.49999999999999994
    vertex 20.296623734435286 39.49482053786033 0.49999999999999994
  endloop
endfacet
facet normal -1.0 0.0 0.0
  outer loop
    vertex 28.7896948703431 39.5130554834549 0.49999999999999994
    vertex 28.7896948703431 38.224335483454894 0.0
    vertex 28.7896948703431 38.224335483454894 0.49999999999999994
  endloop
endfacet
facet normal -1.0 0.0 0.0
  outer loop
    vertex 28.7896948703431 38.224335483454894 0.0
    vertex 28.7896948703431 39.5130554834549 0.49999999999999994
    vertex 28.7896948703431 39.5130554834549 0.0
  endloop
endfacet
facet normal 1.0 0.0 0.0
  outer loop
    vertex 20.296623734435286 39.49482053786033 0.0
    vertex 20.296623734435286 38.20610053786033 0.49999999999999994
    vertex 20.296623734435286 38.20610053786033 0.0
  endloop
endfacet
facet normal 1.0 0.0 0.0
  outer loop
    vertex 20.296623734435286 38.20610053786033 0.49999999999999994
    vertex 20.296623734435286 39.49482053786033 0.0
    vertex 20.296623734435286 39.49482053786033 0.49999999999999994
  endloop
endfacet
facet normal -0.7172705886304029 -0.6967947349727861 0.0
  outer loop
    vertex 24.774862715242808 38.13629108774055 0.49999999999999994
    vertex 27.771715557418045 35.05137340071227 0.0
    vertex 27.771715557418045 35.05137340071227 0.49999999999999994
  endloop
endfacet
facet normal -0.7172705886304029 -0.6967947349727861 0.0
  outer loop
    vertex 27.771715557418045 35.05137340071227 0.0
    vertex 24.774862715242808 38.13629108774055 0.49999999999999994
    vertex 24.774862715242808 38.13629108774055 0.0
  endloop
endfacet
facet normal 0.7264525088976503 0.6872166705750883 0.0
  outer loop
    vertex 19.061071589124087 38.20610053786033 0.0
    vertex 21.169276417020754 35.97753020179143 0.49999999999999994
    vertex 21.169276417020754 35.97753020179143 0.0
  endloop
endfacet
facet normal 0.7264525088976503 0.6872166705750883 0.0
  outer loop
    vertex 21.169276417020754 35.97753020179143 0.49999999999999994
    vertex 19.061071589124087 38.20610053786033 0.0
    vertex 19.061071589124087 38.20610053786033 0.49999999999999994
  endloop
endfacet
facet normal -0.7264525088976506 -0.6872166705750881 0.0
  outer loop
    vertex 18.151598510143938 38.20610053786033 0.49999999999999994
    vertex 21.135938233952658 35.05137340071227 0.0
    vertex 21.135938233952658 35.05137340071227 0.49999999999999994
  endloop
endfacet
facet normal -0.7264525088976506 -0.6872166705750881 0.0
  outer loop
    vertex 21.135938233952658 35.05137340071227 0.0
    vertex 18.151598510143938 38.20610053786033 0.49999999999999994
    vertex 18.151598510143938 38.20610053786033 0.0
  endloop
endfacet
facet normal 0.7383512622761829 -0.6744163502578859 0.0
  outer loop
    vertex 23.999869551547544 38.186806434934965 0.0
    vertex 21.135938233952658 35.05137340071227 0.49999999999999994
    vertex 21.135938233952658 35.05137340071227 0.0
  endloop
endfacet
facet normal 0.7383512622761829 -0.6744163502578859 0.0
  outer loop
    vertex 21.135938233952658 35.05137340071227 0.49999999999999994
    vertex 23.999869551547544 38.186806434934965 0.0
    vertex 23.999869551547544 38.186806434934965 0.49999999999999994
  endloop
endfacet
facet normal 0.7095186209951659 -0.7046866867346921 -6.7597201869993795e-18
  outer loop
    vertex 30.915655156515786 38.21687053700734 5.215570125075309e-17
    vertex 27.771715557418045 35.05137340071227 0.49999999999999994
    vertex 27.771715557418045 35.05137340071227 0.0
  endloop
endfacet
facet normal 0.7095186209951659 -0.7046866867346921 -6.7597201869993795e-18
  outer loop
    vertex 27.771715557418045 35.05137340071227 0.49999999999999994
    vertex 30.915655156515786 38.21687053700734 5.215570125075309e-17
    vertex 30.915655156515786 38.21687053700734 0.5000000000000001
  endloop
endfacet
facet normal 0.0 -1.0 0.0
  outer loop
    vertex 20.296623734435286 38.20610053786033 0.49999999999999994
    vertex 19.061071589124087 38.20610053786033 0.0
    vertex 20.296623734435286 38.20610053786033 0.0
  endloop
endfacet
facet normal 0.0 -1.0 0.0
  outer loop
    vertex 19.061071589124087 38.20610053786033 0.0
    vertex 20.296623734435286 38.20610053786033 0.49999999999999994
    vertex 19.061071589124087 38.20610053786033 0.49999999999999994
  endloop
endfacet
facet normal 0.0020098145819999066 -0.9999920537313374 -0.003442835971714331
  outer loop
    vertex 34.5844258703431 38.224335483454894 0.49999999999999994
    vertex 33.3488737250319 38.224335483454894 0.0
    vertex 34.5844258703431 38.224335483454894 0.0
  endloop
endfacet
facet normal 0.0020098145819999066 -0.9999920537313374 -0.003442835971714331
  outer loop
    vertex 33.3488737250319 38.224335483454894 0.0
    vertex 34.5844258703431 38.224335483454894 0.49999999999999994
    vertex 32.43940064605175 38.224335483454894 0.0
  endloop
endfacet
facet normal 0.0020098145819999066 -0.9999920537313374 -0.003442835971714331
  outer loop
    vertex 32.43940064605175 38.224335483454894 0.0
    vertex 34.5844258703431 38.224335483454894 0.49999999999999994
    vertex 30.915655156515786 38.21687053700734 5.215570125075309e-17
  endloop
endfacet
facet normal 0.0020098145819999066 -0.9999920537313374 -0.003442835971714331
  outer loop
    vertex 30.915655156515786 38.21687053700734 5.215570125075309e-17
    vertex 34.5844258703431 38.224335483454894 0.49999999999999994
    vertex 30.915655156515786 38.21687053700734 0.5000000000000001
  endloop
endfacet
facet normal -0.7383512622761832 0.6744163502578856 0.0
  outer loop
    vertex 23.614019672800303 38.65403599551334 0.49999999999999994
    vertex 21.169276417020754 35.97753020179143 0.0
    vertex 21.169276417020754 35.97753020179143 0.49999999999999994
  endloop
endfacet
facet normal -0.7383512622761832 0.6744163502578856 0.0
  outer loop
    vertex 21.169276417020754 35.97753020179143 0.0
    vertex 23.614019672800303 38.65403599551334 0.49999999999999994
    vertex 23.614019672800303 38.65403599551334 0.0
  endloop
endfacet
facet normal 0.7147675081377886 0.6993621446078537 2.1551606712292903e-17
  outer loop
    vertex 25.22512330542119 38.51511218880861 0.0
    vertex 27.776451486820292 35.90758402801163 0.4999999999999998
    vertex 27.776451486820292 35.90758402801163 -3.1670748975098494e-17
  endloop
endfacet
facet normal 0.7147675081377886 0.6993621446078537 2.1551606712292903e-17
  outer loop
    vertex 27.776451486820292 35.90758402801163 0.4999999999999998
    vertex 25.22512330542119 38.51511218880861 0.0
    vertex 25.22512330542119 38.51511218880861 0.49999999999999994
  endloop
endfacet
facet normal -0.7095186209951666 0.7046866867346916 1.0139580280503608e-17
  outer loop
    vertex 30.065876609755378 38.21270740649282 0.5000000000000001
    vertex 27.776451486820292 35.90758402801163 -3.1670748975098494e-17
    vertex 27.776451486820292 35.90758402801163 0.4999999999999998
  endloop
endfacet
facet normal -0.7095186209951666 0.7046866867346916 1.0139580280503608e-17
  outer loop
    vertex 27.776451486820292 35.90758402801163 -3.1670748975098494e-17
    vertex 30.065876609755378 38.21270740649282 0.5000000000000001
    vertex 30.065876609755378 38.21270740649282 6.517170789227746e-17
  endloop
endfacet
endsolid Untitled-585cbed7
