solid Attitude indicator1
facet normal 0.0 0.0 1.0
  outer loop
    vertex 128.64597346502845 37.2444537365486 8.0
    vertex 128.27097346502845 41.71984583687092 8.0
    vertex 128.27097346502845 37.53220135704072 8.0
  endloop
endfacet
facet normal 0.0 0.0 1.0
  outer loop
    vertex 128.27097346502845 41.71984583687092 8.0
    vertex 128.64597346502845 37.2444537365486 8.0
    vertex 128.64597346502845 42.00759345736302 8.0
  endloop
endfacet
facet normal 0.0 0.0 1.0
  outer loop
    vertex 128.64597346502845 42.00759345736302 8.0
    vertex 128.64597346502845 37.2444537365486 8.0
    vertex 129.30922109099654 36.96972757466087 8.0
  endloop
endfacet
facet normal 0.0 0.0 1.0
  outer loop
    vertex 128.64597346502845 42.00759345736302 8.0
    vertex 129.30922109099654 36.96972757466087 8.0
    vertex 129.30922109099652 42.282319619250764 8.0
  endloop
endfacet
facet normal 0.0 0.0 1.0
  outer loop
    vertex 129.30922109099652 42.282319619250764 8.0
    vertex 129.30922109099654 36.96972757466087 8.0
    vertex 130.02097346502845 42.37602359695582 8.0
  endloop
endfacet
facet normal 0.0 0.0 1.0
  outer loop
    vertex 130.02097346502845 42.37602359695582 8.0
    vertex 129.30922109099654 36.96972757466087 8.0
    vertex 130.02097346502845 36.87602359695581 8.0
  endloop
endfacet
facet normal 0.0 0.0 1.0
  outer loop
    vertex 130.02097346502845 42.37602359695582 8.0
    vertex 130.02097346502845 36.87602359695581 8.0
    vertex 130.73272583906038 36.96972757466087 8.0
  endloop
endfacet
facet normal 0.0 0.0 1.0
  outer loop
    vertex 130.02097346502845 42.37602359695582 8.0
    vertex 130.73272583906038 36.96972757466087 8.0
    vertex 130.73272583906038 42.282319619250764 8.0
  endloop
endfacet
facet normal 0.0 0.0 1.0
  outer loop
    vertex 130.73272583906038 42.282319619250764 8.0
    vertex 130.73272583906038 36.96972757466087 8.0
    vertex 131.39597346502845 37.24445373654861 8.0
  endloop
endfacet
facet normal 0.0 0.0 1.0
  outer loop
    vertex 130.73272583906038 42.282319619250764 8.0
    vertex 131.39597346502845 37.24445373654861 8.0
    vertex 131.39597346502845 42.00759345736303 8.0
  endloop
endfacet
facet normal 0.0 0.0 1.0
  outer loop
    vertex 131.39597346502845 42.00759345736303 8.0
    vertex 131.39597346502845 37.24445373654861 8.0
    vertex 131.77097346502848 37.53220135704072 8.0
  endloop
endfacet
facet normal 0.0 0.0 1.0
  outer loop
    vertex 131.39597346502845 42.00759345736303 8.0
    vertex 131.77097346502848 37.53220135704072 8.0
    vertex 131.77097346502848 41.71984583687091 8.0
  endloop
endfacet
facet normal 0.0 0.0 1.0
  outer loop
    vertex 124.22541850729407 38.07310932634069 15.0
    vertex 124.22541850729405 41.17893786757094 15.0
    vertex 124.02097346502846 39.62602359695582 15.0
  endloop
endfacet
facet normal 0.0 0.0 1.0
  outer loop
    vertex 124.22541850729405 41.17893786757094 15.0
    vertex 124.22541850729407 38.07310932634069 15.0
    vertex 124.82482104232183 42.62602359695581 15.0
  endloop
endfacet
facet normal 0.0 0.0 1.0
  outer loop
    vertex 124.82482104232183 42.62602359695581 15.0
    vertex 124.22541850729407 38.07310932634069 15.0
    vertex 124.82482104232183 36.62602359695582 15.0
  endloop
endfacet
facet normal 0.0 0.0 1.0
  outer loop
    vertex 124.82482104232183 42.62602359695581 15.0
    vertex 124.82482104232183 36.62602359695582 15.0
    vertex 125.77833277790918 35.383382909836534 15.0
  endloop
endfacet
facet normal 0.0 0.0 1.0
  outer loop
    vertex 124.82482104232183 42.62602359695581 15.0
    vertex 125.77833277790918 35.383382909836534 15.0
    vertex 125.77833277790918 43.86866428407509 15.0
  endloop
endfacet
facet normal 0.0 0.0 1.0
  outer loop
    vertex 125.77833277790918 43.86866428407509 15.0
    vertex 125.77833277790918 35.383382909836534 15.0
    vertex 127.02097346502846 34.42987117424919 15.0
  endloop
endfacet
facet normal 0.0 0.0 1.0
  outer loop
    vertex 125.77833277790918 43.86866428407509 15.0
    vertex 127.02097346502846 34.42987117424919 15.0
    vertex 127.02097346502846 44.822176019662436 15.0
  endloop
endfacet
facet normal 0.0 0.0 1.0
  outer loop
    vertex 127.02097346502846 44.822176019662436 15.0
    vertex 127.02097346502846 34.42987117424919 15.0
    vertex 128.46805919441334 33.830468639221415 15.0
  endloop
endfacet
facet normal 0.0 0.0 1.0
  outer loop
    vertex 127.02097346502846 44.822176019662436 15.0
    vertex 128.46805919441334 33.830468639221415 15.0
    vertex 128.22097346502846 37.38311437177358 15.0
  endloop
endfacet
facet normal 0.0 0.0 1.0
  outer loop
    vertex 128.22097346502846 37.38311437177358 15.0
    vertex 128.46805919441334 33.830468639221415 15.0
    vertex 128.57097346502846 37.114549925980945 15.0
  endloop
endfacet
facet normal 0.0 0.0 1.0
  outer loop
    vertex 128.57097346502846 37.114549925980945 15.0
    vertex 128.46805919441334 33.830468639221415 15.0
    vertex 130.02097346502845 33.626023596955825 15.0
  endloop
endfacet
facet normal 0.0 0.0 1.0
  outer loop
    vertex 128.57097346502846 37.114549925980945 15.0
    vertex 130.02097346502845 33.626023596955825 15.0
    vertex 129.27039823423115 36.824838700717514 15.0
  endloop
endfacet
facet normal 0.0 0.0 1.0
  outer loop
    vertex 129.27039823423115 36.824838700717514 15.0
    vertex 130.02097346502845 33.626023596955825 15.0
    vertex 130.02097346502845 36.72602359695581 15.0
  endloop
endfacet
facet normal 0.0 0.0 1.0
  outer loop
    vertex 130.02097346502845 36.72602359695581 15.0
    vertex 130.02097346502845 33.626023596955825 15.0
    vertex 131.57388773564358 33.830468639221415 15.0
  endloop
endfacet
facet normal 0.0 0.0 1.0
  outer loop
    vertex 130.02097346502845 36.72602359695581 15.0
    vertex 131.57388773564358 33.830468639221415 15.0
    vertex 130.77154869582577 36.82483870071752 15.0
  endloop
endfacet
facet normal 0.0 0.0 1.0
  outer loop
    vertex 130.77154869582577 36.82483870071752 15.0
    vertex 131.57388773564358 33.830468639221415 15.0
    vertex 131.47097346502846 37.114549925980945 15.0
  endloop
endfacet
facet normal 0.0 0.0 1.0
  outer loop
    vertex 131.47097346502846 37.114549925980945 15.0
    vertex 131.57388773564358 33.830468639221415 15.0
    vertex 131.82097346502846 37.38311437177358 15.0
  endloop
endfacet
facet normal 0.0 0.0 1.0
  outer loop
    vertex 131.82097346502846 37.38311437177358 15.0
    vertex 131.57388773564358 33.830468639221415 15.0
    vertex 133.02097346502845 34.42987117424919 15.0
  endloop
endfacet
facet normal 0.0 0.0 1.0
  outer loop
    vertex 131.82097346502846 37.38311437177358 15.0
    vertex 133.02097346502845 34.42987117424919 15.0
    vertex 131.82097346502846 41.868932822138056 15.0
  endloop
endfacet
facet normal 0.0 0.0 1.0
  outer loop
    vertex 127.02097346502846 44.822176019662436 15.0
    vertex 128.22097346502846 41.86893282213805 15.0
    vertex 128.4680591944133 45.421578554690214 15.0
  endloop
endfacet
facet normal 0.0 0.0 1.0
  outer loop
    vertex 128.22097346502846 41.86893282213805 15.0
    vertex 127.02097346502846 44.822176019662436 15.0
    vertex 128.22097346502846 37.38311437177358 15.0
  endloop
endfacet
facet normal 0.0 0.0 1.0
  outer loop
    vertex 128.4680591944133 45.421578554690214 15.0
    vertex 128.22097346502846 41.86893282213805 15.0
    vertex 128.57097346502846 42.13749726793069 15.0
  endloop
endfacet
facet normal 0.0 0.0 1.0
  outer loop
    vertex 128.4680591944133 45.421578554690214 15.0
    vertex 128.57097346502846 42.13749726793069 15.0
    vertex 130.02097346502845 45.626023596955804 15.0
  endloop
endfacet
facet normal 0.0 0.0 1.0
  outer loop
    vertex 130.02097346502845 45.626023596955804 15.0
    vertex 128.57097346502846 42.13749726793069 15.0
    vertex 129.27039823423115 42.427208493194115 15.0
  endloop
endfacet
facet normal 0.0 0.0 1.0
  outer loop
    vertex 130.02097346502845 45.626023596955804 15.0
    vertex 129.27039823423115 42.427208493194115 15.0
    vertex 130.02097346502845 42.52602359695582 15.0
  endloop
endfacet
facet normal 0.0 0.0 1.0
  outer loop
    vertex 130.02097346502845 45.626023596955804 15.0
    vertex 130.02097346502845 42.52602359695582 15.0
    vertex 130.77154869582577 42.427208493194115 15.0
  endloop
endfacet
facet normal 0.0 0.0 1.0
  outer loop
    vertex 130.02097346502845 45.626023596955804 15.0
    vertex 130.77154869582577 42.427208493194115 15.0
    vertex 131.57388773564358 45.421578554690214 15.0
  endloop
endfacet
facet normal 0.0 0.0 1.0
  outer loop
    vertex 131.57388773564358 45.421578554690214 15.0
    vertex 130.77154869582577 42.427208493194115 15.0
    vertex 131.47097346502846 42.13749726793069 15.0
  endloop
endfacet
facet normal 0.0 0.0 1.0
  outer loop
    vertex 131.57388773564358 45.421578554690214 15.0
    vertex 131.47097346502846 42.13749726793069 15.0
    vertex 131.82097346502846 41.868932822138056 15.0
  endloop
endfacet
facet normal 0.0 0.0 1.0
  outer loop
    vertex 131.57388773564358 45.421578554690214 15.0
    vertex 131.82097346502846 41.868932822138056 15.0
    vertex 133.02097346502845 44.822176019662436 15.0
  endloop
endfacet
facet normal 0.0 0.0 1.0
  outer loop
    vertex 133.02097346502845 44.822176019662436 15.0
    vertex 131.82097346502846 41.868932822138056 15.0
    vertex 133.02097346502845 34.42987117424919 15.0
  endloop
endfacet
facet normal 0.0 0.0 1.0
  outer loop
    vertex 133.02097346502845 44.822176019662436 15.0
    vertex 133.02097346502845 34.42987117424919 15.0
    vertex 134.26361415214774 35.383382909836534 15.0
  endloop
endfacet
facet normal 0.0 0.0 1.0
  outer loop
    vertex 133.02097346502845 44.822176019662436 15.0
    vertex 134.26361415214774 35.383382909836534 15.0
    vertex 134.26361415214774 43.868664284075095 15.0
  endloop
endfacet
facet normal 0.0 0.0 1.0
  outer loop
    vertex 134.26361415214774 43.868664284075095 15.0
    vertex 134.26361415214774 35.383382909836534 15.0
    vertex 135.21712588773508 36.62602359695582 15.0
  endloop
endfacet
facet normal 0.0 0.0 1.0
  outer loop
    vertex 134.26361415214774 43.868664284075095 15.0
    vertex 135.21712588773508 36.62602359695582 15.0
    vertex 135.21712588773508 42.62602359695581 15.0
  endloop
endfacet
facet normal 0.0 0.0 1.0
  outer loop
    vertex 135.21712588773508 42.62602359695581 15.0
    vertex 135.21712588773508 36.62602359695582 15.0
    vertex 135.81652842276287 38.0731093263407 15.0
  endloop
endfacet
facet normal 0.0 0.0 1.0
  outer loop
    vertex 135.21712588773508 42.62602359695581 15.0
    vertex 135.81652842276287 38.0731093263407 15.0
    vertex 135.81652842276284 41.17893786757094 15.0
  endloop
endfacet
facet normal 0.0 0.0 1.0
  outer loop
    vertex 135.81652842276284 41.17893786757094 15.0
    vertex 135.81652842276287 38.0731093263407 15.0
    vertex 136.02097346502845 39.62602359695582 15.0
  endloop
endfacet
facet normal -0.6087614290087242 0.7933533402912324 0.0
  outer loop
    vertex 125.77833277790918 43.86866428407509 15.0
    vertex 127.02097346502846 44.822176019662436 1.127986593019159e-14
    vertex 125.77833277790918 43.86866428407509 1.127986593019159e-14
  endloop
endfacet
facet normal -0.6087614290087242 0.7933533402912324 0.0
  outer loop
    vertex 127.02097346502846 44.822176019662436 1.127986593019159e-14
    vertex 125.77833277790918 43.86866428407509 15.0
    vertex 127.02097346502846 44.822176019662436 15.0
  endloop
endfacet
facet normal -0.38268343236509206 0.9238795325112859 0.0
  outer loop
    vertex 127.02097346502846 44.822176019662436 15.0
    vertex 128.4680591944133 45.421578554690214 1.127986593019159e-14
    vertex 127.02097346502846 44.822176019662436 1.127986593019159e-14
  endloop
endfacet
facet normal -0.38268343236509206 0.9238795325112859 0.0
  outer loop
    vertex 128.4680591944133 45.421578554690214 1.127986593019159e-14
    vertex 127.02097346502846 44.822176019662436 15.0
    vertex 128.4680591944133 45.421578554690214 15.0
  endloop
endfacet
facet normal -0.13052619222005074 0.9914448613738105 0.0
  outer loop
    vertex 128.4680591944133 45.421578554690214 15.0
    vertex 130.02097346502845 45.626023596955804 1.127986593019159e-14
    vertex 128.4680591944133 45.421578554690214 1.127986593019159e-14
  endloop
endfacet
facet normal -0.13052619222005074 0.9914448613738105 0.0
  outer loop
    vertex 130.02097346502845 45.626023596955804 1.127986593019159e-14
    vertex 128.4680591944133 45.421578554690214 15.0
    vertex 130.02097346502845 45.626023596955804 15.0
  endloop
endfacet
facet normal 0.13052619222005263 0.9914448613738104 0.0
  outer loop
    vertex 130.02097346502845 45.626023596955804 15.0
    vertex 131.57388773564358 45.421578554690214 1.127986593019159e-14
    vertex 130.02097346502845 45.626023596955804 1.127986593019159e-14
  endloop
endfacet
facet normal 0.13052619222005263 0.9914448613738104 0.0
  outer loop
    vertex 131.57388773564358 45.421578554690214 1.127986593019159e-14
    vertex 130.02097346502845 45.626023596955804 15.0
    vertex 131.57388773564358 45.421578554690214 15.0
  endloop
endfacet
facet normal 0.38268343236508695 0.923879532511288 0.0
  outer loop
    vertex 131.57388773564358 45.421578554690214 15.0
    vertex 133.02097346502845 44.822176019662436 1.127986593019159e-14
    vertex 131.57388773564358 45.421578554690214 1.127986593019159e-14
  endloop
endfacet
facet normal 0.38268343236508695 0.923879532511288 0.0
  outer loop
    vertex 133.02097346502845 44.822176019662436 1.127986593019159e-14
    vertex 131.57388773564358 45.421578554690214 15.0
    vertex 133.02097346502845 44.822176019662436 15.0
  endloop
endfacet
facet normal 0.608761429008722 0.7933533402912343 0.0
  outer loop
    vertex 133.02097346502845 44.822176019662436 15.0
    vertex 134.26361415214774 43.868664284075095 1.127986593019159e-14
    vertex 133.02097346502845 44.822176019662436 1.127986593019159e-14
  endloop
endfacet
facet normal 0.608761429008722 0.7933533402912343 0.0
  outer loop
    vertex 134.26361415214774 43.868664284075095 1.127986593019159e-14
    vertex 133.02097346502845 44.822176019662436 15.0
    vertex 134.26361415214774 43.868664284075095 15.0
  endloop
endfacet
facet normal 0.7933533402912337 0.6087614290087224 0.0
  outer loop
    vertex 134.26361415214774 43.868664284075095 1.127986593019159e-14
    vertex 135.21712588773508 42.62602359695581 15.0
    vertex 135.21712588773508 42.62602359695581 1.127986593019159e-14
  endloop
endfacet
facet normal 0.7933533402912337 0.6087614290087224 0.0
  outer loop
    vertex 135.21712588773508 42.62602359695581 15.0
    vertex 134.26361415214774 43.868664284075095 1.127986593019159e-14
    vertex 134.26361415214774 43.868664284075095 15.0
  endloop
endfacet
facet normal 0.9238795325112894 0.38268343236508334 0.0
  outer loop
    vertex 135.21712588773508 42.62602359695581 1.127986593019159e-14
    vertex 135.81652842276284 41.17893786757094 15.0
    vertex 135.81652842276284 41.17893786757094 1.127986593019159e-14
  endloop
endfacet
facet normal 0.9238795325112894 0.38268343236508334 0.0
  outer loop
    vertex 135.81652842276284 41.17893786757094 15.0
    vertex 135.21712588773508 42.62602359695581 1.127986593019159e-14
    vertex 135.21712588773508 42.62602359695581 15.0
  endloop
endfacet
facet normal 0.9914448613738096 0.13052619222005876 0.0
  outer loop
    vertex 135.81652842276284 41.17893786757094 1.127986593019159e-14
    vertex 136.02097346502845 39.62602359695582 15.0
    vertex 136.02097346502845 39.62602359695582 1.127986593019159e-14
  endloop
endfacet
facet normal 0.9914448613738096 0.13052619222005876 0.0
  outer loop
    vertex 136.02097346502845 39.62602359695582 15.0
    vertex 135.81652842276284 41.17893786757094 1.127986593019159e-14
    vertex 135.81652842276284 41.17893786757094 15.0
  endloop
endfacet
facet normal 0.9914448613738114 -0.13052619222004508 0.0
  outer loop
    vertex 136.02097346502845 39.62602359695582 1.127986593019159e-14
    vertex 135.81652842276287 38.0731093263407 15.0
    vertex 135.81652842276287 38.0731093263407 1.127986593019159e-14
  endloop
endfacet
facet normal 0.9914448613738114 -0.13052619222004508 0.0
  outer loop
    vertex 135.81652842276287 38.0731093263407 15.0
    vertex 136.02097346502845 39.62602359695582 1.127986593019159e-14
    vertex 136.02097346502845 39.62602359695582 15.0
  endloop
endfacet
facet normal 0.923879532511285 -0.38268343236509444 0.0
  outer loop
    vertex 135.81652842276287 38.0731093263407 1.127986593019159e-14
    vertex 135.21712588773508 36.62602359695582 15.0
    vertex 135.21712588773508 36.62602359695582 1.127986593019159e-14
  endloop
endfacet
facet normal 0.923879532511285 -0.38268343236509444 0.0
  outer loop
    vertex 135.21712588773508 36.62602359695582 15.0
    vertex 135.81652842276287 38.0731093263407 1.127986593019159e-14
    vertex 135.81652842276287 38.0731093263407 15.0
  endloop
endfacet
facet normal 0.7933533402912337 -0.6087614290087224 0.0
  outer loop
    vertex 135.21712588773508 36.62602359695582 1.127986593019159e-14
    vertex 134.26361415214774 35.383382909836534 15.0
    vertex 134.26361415214774 35.383382909836534 1.127986593019159e-14
  endloop
endfacet
facet normal 0.7933533402912337 -0.6087614290087224 0.0
  outer loop
    vertex 134.26361415214774 35.383382909836534 15.0
    vertex 135.21712588773508 36.62602359695582 1.127986593019159e-14
    vertex 135.21712588773508 36.62602359695582 15.0
  endloop
endfacet
facet normal 0.608761429008722 -0.7933533402912343 0.0
  outer loop
    vertex 134.26361415214774 35.383382909836534 15.0
    vertex 133.02097346502845 34.42987117424919 1.127986593019159e-14
    vertex 134.26361415214774 35.383382909836534 1.127986593019159e-14
  endloop
endfacet
facet normal 0.608761429008722 -0.7933533402912343 0.0
  outer loop
    vertex 133.02097346502845 34.42987117424919 1.127986593019159e-14
    vertex 134.26361415214774 35.383382909836534 15.0
    vertex 133.02097346502845 34.42987117424919 15.0
  endloop
endfacet
facet normal 0.38268343236508695 -0.923879532511288 0.0
  outer loop
    vertex 133.02097346502845 34.42987117424919 15.0
    vertex 131.57388773564358 33.830468639221415 1.127986593019159e-14
    vertex 133.02097346502845 34.42987117424919 1.127986593019159e-14
  endloop
endfacet
facet normal 0.38268343236508695 -0.923879532511288 0.0
  outer loop
    vertex 131.57388773564358 33.830468639221415 1.127986593019159e-14
    vertex 133.02097346502845 34.42987117424919 15.0
    vertex 131.57388773564358 33.830468639221415 15.0
  endloop
endfacet
facet normal 0.13052619222005263 -0.9914448613738104 0.0
  outer loop
    vertex 131.57388773564358 33.830468639221415 15.0
    vertex 130.02097346502845 33.626023596955825 1.127986593019159e-14
    vertex 131.57388773564358 33.830468639221415 1.127986593019159e-14
  endloop
endfacet
facet normal 0.13052619222005263 -0.9914448613738104 0.0
  outer loop
    vertex 130.02097346502845 33.626023596955825 1.127986593019159e-14
    vertex 131.57388773564358 33.830468639221415 15.0
    vertex 130.02097346502845 33.626023596955825 15.0
  endloop
endfacet
facet normal -0.13052619222005263 -0.9914448613738104 -0.0
  outer loop
    vertex 130.02097346502845 33.626023596955825 15.0
    vertex 128.46805919441334 33.830468639221415 1.127986593019159e-14
    vertex 130.02097346502845 33.626023596955825 1.127986593019159e-14
  endloop
endfacet
facet normal -0.13052619222005263 -0.9914448613738104 -0.0
  outer loop
    vertex 128.46805919441334 33.830468639221415 1.127986593019159e-14
    vertex 130.02097346502845 33.626023596955825 15.0
    vertex 128.46805919441334 33.830468639221415 15.0
  endloop
endfacet
facet normal -0.38268343236508695 -0.923879532511288 -0.0
  outer loop
    vertex 128.46805919441334 33.830468639221415 15.0
    vertex 127.02097346502846 34.42987117424919 1.127986593019159e-14
    vertex 128.46805919441334 33.830468639221415 1.127986593019159e-14
  endloop
endfacet
facet normal -0.38268343236508695 -0.923879532511288 -0.0
  outer loop
    vertex 127.02097346502846 34.42987117424919 1.127986593019159e-14
    vertex 128.46805919441334 33.830468639221415 15.0
    vertex 127.02097346502846 34.42987117424919 15.0
  endloop
endfacet
facet normal -0.608761429008722 -0.7933533402912343 -0.0
  outer loop
    vertex 127.02097346502846 34.42987117424919 15.0
    vertex 125.77833277790918 35.383382909836534 1.127986593019159e-14
    vertex 127.02097346502846 34.42987117424919 1.127986593019159e-14
  endloop
endfacet
facet normal -0.608761429008722 -0.7933533402912343 -0.0
  outer loop
    vertex 125.77833277790918 35.383382909836534 1.127986593019159e-14
    vertex 127.02097346502846 34.42987117424919 15.0
    vertex 125.77833277790918 35.383382909836534 15.0
  endloop
endfacet
facet normal -0.7933533402912337 -0.6087614290087224 -0.0
  outer loop
    vertex 124.82482104232183 36.62602359695582 15.0
    vertex 125.77833277790918 35.383382909836534 1.127986593019159e-14
    vertex 125.77833277790918 35.383382909836534 15.0
  endloop
endfacet
facet normal -0.7933533402912337 -0.6087614290087224 -0.0
  outer loop
    vertex 125.77833277790918 35.383382909836534 1.127986593019159e-14
    vertex 124.82482104232183 36.62602359695582 15.0
    vertex 124.82482104232183 36.62602359695582 1.127986593019159e-14
  endloop
endfacet
facet normal -0.9238795325112894 -0.38268343236508334 -0.0
  outer loop
    vertex 124.22541850729407 38.07310932634069 15.0
    vertex 124.82482104232183 36.62602359695582 1.127986593019159e-14
    vertex 124.82482104232183 36.62602359695582 15.0
  endloop
endfacet
facet normal -0.9238795325112894 -0.38268343236508334 -0.0
  outer loop
    vertex 124.82482104232183 36.62602359695582 1.127986593019159e-14
    vertex 124.22541850729407 38.07310932634069 15.0
    vertex 124.22541850729407 38.07310932634069 1.127986593019159e-14
  endloop
endfacet
facet normal -0.9914448613738096 -0.13052619222005876 -0.0
  outer loop
    vertex 124.02097346502846 39.62602359695582 15.0
    vertex 124.22541850729407 38.07310932634069 1.127986593019159e-14
    vertex 124.22541850729407 38.07310932634069 15.0
  endloop
endfacet
facet normal -0.9914448613738096 -0.13052619222005876 -0.0
  outer loop
    vertex 124.22541850729407 38.07310932634069 1.127986593019159e-14
    vertex 124.02097346502846 39.62602359695582 15.0
    vertex 124.02097346502846 39.62602359695582 1.127986593019159e-14
  endloop
endfacet
facet normal -0.9914448613738114 0.13052619222004508 0.0
  outer loop
    vertex 124.22541850729405 41.17893786757094 15.0
    vertex 124.02097346502846 39.62602359695582 1.127986593019159e-14
    vertex 124.02097346502846 39.62602359695582 15.0
  endloop
endfacet
facet normal -0.9914448613738114 0.13052619222004508 0.0
  outer loop
    vertex 124.02097346502846 39.62602359695582 1.127986593019159e-14
    vertex 124.22541850729405 41.17893786757094 15.0
    vertex 124.22541850729405 41.17893786757094 1.127986593019159e-14
  endloop
endfacet
facet normal -0.923879532511285 0.38268343236509444 0.0
  outer loop
    vertex 124.82482104232183 42.62602359695581 15.0
    vertex 124.22541850729405 41.17893786757094 1.127986593019159e-14
    vertex 124.22541850729405 41.17893786757094 15.0
  endloop
endfacet
facet normal -0.923879532511285 0.38268343236509444 0.0
  outer loop
    vertex 124.22541850729405 41.17893786757094 1.127986593019159e-14
    vertex 124.82482104232183 42.62602359695581 15.0
    vertex 124.82482104232183 42.62602359695581 1.127986593019159e-14
  endloop
endfacet
facet normal -0.7933533402912324 0.6087614290087242 0.0
  outer loop
    vertex 125.77833277790918 43.86866428407509 15.0
    vertex 124.82482104232183 42.62602359695581 1.127986593019159e-14
    vertex 124.82482104232183 42.62602359695581 15.0
  endloop
endfacet
facet normal -0.7933533402912324 0.6087614290087242 0.0
  outer loop
    vertex 124.82482104232183 42.62602359695581 1.127986593019159e-14
    vertex 125.77833277790918 43.86866428407509 15.0
    vertex 125.77833277790918 43.86866428407509 1.127986593019159e-14
  endloop
endfacet
facet normal 0.0 0.0 -1.0
  outer loop
    vertex 124.22541850729405 41.17893786757094 1.127986593019159e-14
    vertex 124.22541850729407 38.07310932634069 1.127986593019159e-14
    vertex 124.02097346502846 39.62602359695582 1.127986593019159e-14
  endloop
endfacet
facet normal 0.0 0.0 -1.0
  outer loop
    vertex 124.22541850729407 38.07310932634069 1.127986593019159e-14
    vertex 124.22541850729405 41.17893786757094 1.127986593019159e-14
    vertex 124.82482104232183 42.62602359695581 1.127986593019159e-14
  endloop
endfacet
facet normal 0.0 0.0 -1.0
  outer loop
    vertex 124.22541850729407 38.07310932634069 1.127986593019159e-14
    vertex 124.82482104232183 42.62602359695581 1.127986593019159e-14
    vertex 124.82482104232183 36.62602359695582 1.127986593019159e-14
  endloop
endfacet
facet normal 0.0 0.0 -1.0
  outer loop
    vertex 124.82482104232183 36.62602359695582 1.127986593019159e-14
    vertex 124.82482104232183 42.62602359695581 1.127986593019159e-14
    vertex 125.77833277790918 43.86866428407509 1.127986593019159e-14
  endloop
endfacet
facet normal 0.0 0.0 -1.0
  outer loop
    vertex 124.82482104232183 36.62602359695582 1.127986593019159e-14
    vertex 125.77833277790918 43.86866428407509 1.127986593019159e-14
    vertex 125.77833277790918 35.383382909836534 1.127986593019159e-14
  endloop
endfacet
facet normal 0.0 0.0 -1.0
  outer loop
    vertex 125.77833277790918 35.383382909836534 1.127986593019159e-14
    vertex 125.77833277790918 43.86866428407509 1.127986593019159e-14
    vertex 127.02097346502846 44.822176019662436 1.127986593019159e-14
  endloop
endfacet
facet normal 0.0 0.0 -1.0
  outer loop
    vertex 125.77833277790918 35.383382909836534 1.127986593019159e-14
    vertex 127.02097346502846 44.822176019662436 1.127986593019159e-14
    vertex 127.02097346502846 34.42987117424919 1.127986593019159e-14
  endloop
endfacet
facet normal 0.0 0.0 -1.0
  outer loop
    vertex 127.02097346502846 34.42987117424919 1.127986593019159e-14
    vertex 127.02097346502846 44.822176019662436 1.127986593019159e-14
    vertex 128.4680591944133 45.421578554690214 1.127986593019159e-14
  endloop
endfacet
facet normal 0.0 0.0 -1.0
  outer loop
    vertex 127.02097346502846 34.42987117424919 1.127986593019159e-14
    vertex 128.4680591944133 45.421578554690214 1.127986593019159e-14
    vertex 128.46805919441334 33.830468639221415 1.127986593019159e-14
  endloop
endfacet
facet normal 0.0 0.0 -1.0
  outer loop
    vertex 128.46805919441334 33.830468639221415 1.127986593019159e-14
    vertex 128.4680591944133 45.421578554690214 1.127986593019159e-14
    vertex 130.02097346502845 45.626023596955804 1.127986593019159e-14
  endloop
endfacet
facet normal 0.0 0.0 -1.0
  outer loop
    vertex 128.46805919441334 33.830468639221415 1.127986593019159e-14
    vertex 130.02097346502845 45.626023596955804 1.127986593019159e-14
    vertex 130.02097346502845 33.626023596955825 1.127986593019159e-14
  endloop
endfacet
facet normal 0.0 0.0 -1.0
  outer loop
    vertex 130.02097346502845 33.626023596955825 1.127986593019159e-14
    vertex 130.02097346502845 45.626023596955804 1.127986593019159e-14
    vertex 131.57388773564358 45.421578554690214 1.127986593019159e-14
  endloop
endfacet
facet normal 0.0 0.0 -1.0
  outer loop
    vertex 130.02097346502845 33.626023596955825 1.127986593019159e-14
    vertex 131.57388773564358 45.421578554690214 1.127986593019159e-14
    vertex 131.57388773564358 33.830468639221415 1.127986593019159e-14
  endloop
endfacet
facet normal 0.0 0.0 -1.0
  outer loop
    vertex 131.57388773564358 33.830468639221415 1.127986593019159e-14
    vertex 131.57388773564358 45.421578554690214 1.127986593019159e-14
    vertex 133.02097346502845 44.822176019662436 1.127986593019159e-14
  endloop
endfacet
facet normal 0.0 0.0 -1.0
  outer loop
    vertex 131.57388773564358 33.830468639221415 1.127986593019159e-14
    vertex 133.02097346502845 44.822176019662436 1.127986593019159e-14
    vertex 133.02097346502845 34.42987117424919 1.127986593019159e-14
  endloop
endfacet
facet normal 0.0 0.0 -1.0
  outer loop
    vertex 133.02097346502845 34.42987117424919 1.127986593019159e-14
    vertex 133.02097346502845 44.822176019662436 1.127986593019159e-14
    vertex 134.26361415214774 43.868664284075095 1.127986593019159e-14
  endloop
endfacet
facet normal 0.0 0.0 -1.0
  outer loop
    vertex 133.02097346502845 34.42987117424919 1.127986593019159e-14
    vertex 134.26361415214774 43.868664284075095 1.127986593019159e-14
    vertex 134.26361415214774 35.383382909836534 1.127986593019159e-14
  endloop
endfacet
facet normal 0.0 0.0 -1.0
  outer loop
    vertex 134.26361415214774 35.383382909836534 1.127986593019159e-14
    vertex 134.26361415214774 43.868664284075095 1.127986593019159e-14
    vertex 135.21712588773508 42.62602359695581 1.127986593019159e-14
  endloop
endfacet
facet normal 0.0 0.0 -1.0
  outer loop
    vertex 134.26361415214774 35.383382909836534 1.127986593019159e-14
    vertex 135.21712588773508 42.62602359695581 1.127986593019159e-14
    vertex 135.21712588773508 36.62602359695582 1.127986593019159e-14
  endloop
endfacet
facet normal 0.0 0.0 -1.0
  outer loop
    vertex 135.21712588773508 36.62602359695582 1.127986593019159e-14
    vertex 135.21712588773508 42.62602359695581 1.127986593019159e-14
    vertex 135.81652842276284 41.17893786757094 1.127986593019159e-14
  endloop
endfacet
facet normal 0.0 0.0 -1.0
  outer loop
    vertex 135.21712588773508 36.62602359695582 1.127986593019159e-14
    vertex 135.81652842276284 41.17893786757094 1.127986593019159e-14
    vertex 135.81652842276287 38.0731093263407 1.127986593019159e-14
  endloop
endfacet
facet normal 0.0 0.0 -1.0
  outer loop
    vertex 135.81652842276287 38.0731093263407 1.127986593019159e-14
    vertex 135.81652842276284 41.17893786757094 1.127986593019159e-14
    vertex 136.02097346502845 39.62602359695582 1.127986593019159e-14
  endloop
endfacet
facet normal 0.0 0.0 1.0
  outer loop
    vertex 128.57097346502846 37.114549925980945 5.000000000000001
    vertex 128.22097346502846 41.86893282213805 5.000000000000001
    vertex 128.22097346502846 37.38311437177358 5.000000000000001
  endloop
endfacet
facet normal 0.0 0.0 1.0
  outer loop
    vertex 128.22097346502846 41.86893282213805 5.000000000000001
    vertex 128.57097346502846 37.114549925980945 5.000000000000001
    vertex 128.57097346502846 42.13749726793069 5.000000000000001
  endloop
endfacet
facet normal 0.0 0.0 1.0
  outer loop
    vertex 128.57097346502846 42.13749726793069 5.000000000000001
    vertex 128.57097346502846 37.114549925980945 5.000000000000001
    vertex 129.27039823423115 36.824838700717514 5.000000000000001
  endloop
endfacet
facet normal 0.0 0.0 1.0
  outer loop
    vertex 128.57097346502846 42.13749726793069 5.000000000000001
    vertex 129.27039823423115 36.824838700717514 5.000000000000001
    vertex 129.27039823423115 42.427208493194115 5.000000000000001
  endloop
endfacet
facet normal 0.0 0.0 1.0
  outer loop
    vertex 129.27039823423115 42.427208493194115 5.000000000000001
    vertex 129.27039823423115 36.824838700717514 5.000000000000001
    vertex 130.02097346502845 36.72602359695581 5.000000000000001
  endloop
endfacet
facet normal 0.0 0.0 1.0
  outer loop
    vertex 129.27039823423115 42.427208493194115 5.000000000000001
    vertex 130.02097346502845 36.72602359695581 5.000000000000001
    vertex 130.02097346502845 42.52602359695582 5.000000000000001
  endloop
endfacet
facet normal 0.0 0.0 1.0
  outer loop
    vertex 130.02097346502845 42.52602359695582 5.000000000000001
    vertex 130.02097346502845 36.72602359695581 5.000000000000001
    vertex 130.77154869582577 36.82483870071752 5.000000000000001
  endloop
endfacet
facet normal 0.0 0.0 1.0
  outer loop
    vertex 130.02097346502845 42.52602359695582 5.000000000000001
    vertex 130.77154869582577 36.82483870071752 5.000000000000001
    vertex 130.77154869582577 42.427208493194115 5.000000000000001
  endloop
endfacet
facet normal 0.0 0.0 1.0
  outer loop
    vertex 130.77154869582577 42.427208493194115 5.000000000000001
    vertex 130.77154869582577 36.82483870071752 5.000000000000001
    vertex 131.47097346502846 37.114549925980945 5.000000000000001
  endloop
endfacet
facet normal 0.0 0.0 1.0
  outer loop
    vertex 130.77154869582577 42.427208493194115 5.000000000000001
    vertex 131.47097346502846 37.114549925980945 5.000000000000001
    vertex 131.47097346502846 42.13749726793069 5.000000000000001
  endloop
endfacet
facet normal 0.0 0.0 1.0
  outer loop
    vertex 131.47097346502846 42.13749726793069 5.000000000000001
    vertex 131.47097346502846 37.114549925980945 5.000000000000001
    vertex 131.82097346502846 37.38311437177358 5.000000000000001
  endloop
endfacet
facet normal 0.0 0.0 1.0
  outer loop
    vertex 131.47097346502846 42.13749726793069 5.000000000000001
    vertex 131.82097346502846 37.38311437177358 5.000000000000001
    vertex 131.82097346502846 41.868932822138056 5.000000000000001
  endloop
endfacet
facet normal 0.6087614290087393 -0.793353340291221 0.0
  outer loop
    vertex 128.57097346502846 42.13749726793069 15.0
    vertex 128.22097346502846 41.86893282213805 5.000000000000001
    vertex 128.57097346502846 42.13749726793069 5.000000000000001
  endloop
endfacet
facet normal 0.6087614290087393 -0.793353340291221 0.0
  outer loop
    vertex 128.22097346502846 41.86893282213805 5.000000000000001
    vertex 128.57097346502846 42.13749726793069 15.0
    vertex 128.22097346502846 41.86893282213805 15.0
  endloop
endfacet
facet normal 1.0 0.0 0.0
  outer loop
    vertex 128.22097346502846 41.86893282213805 5.000000000000001
    vertex 128.22097346502846 37.38311437177358 15.0
    vertex 128.22097346502846 37.38311437177358 5.000000000000001
  endloop
endfacet
facet normal 1.0 0.0 0.0
  outer loop
    vertex 128.22097346502846 37.38311437177358 15.0
    vertex 128.22097346502846 41.86893282213805 5.000000000000001
    vertex 128.22097346502846 41.86893282213805 15.0
  endloop
endfacet
facet normal 0.6087614290087312 0.7933533402912271 0.0
  outer loop
    vertex 128.22097346502846 37.38311437177358 15.0
    vertex 128.57097346502846 37.114549925980945 5.000000000000001
    vertex 128.22097346502846 37.38311437177358 5.000000000000001
  endloop
endfacet
facet normal 0.6087614290087312 0.7933533402912271 0.0
  outer loop
    vertex 128.57097346502846 37.114549925980945 5.000000000000001
    vertex 128.22097346502846 37.38311437177358 15.0
    vertex 128.57097346502846 37.114549925980945 15.0
  endloop
endfacet
facet normal 0.382683432365085 0.9238795325112887 0.0
  outer loop
    vertex 128.57097346502846 37.114549925980945 15.0
    vertex 129.27039823423115 36.824838700717514 5.000000000000001
    vertex 128.57097346502846 37.114549925980945 5.000000000000001
  endloop
endfacet
facet normal 0.382683432365085 0.9238795325112887 0.0
  outer loop
    vertex 129.27039823423115 36.824838700717514 5.000000000000001
    vertex 128.57097346502846 37.114549925980945 15.0
    vertex 129.27039823423115 36.824838700717514 15.0
  endloop
endfacet
facet normal 0.13052619222005069 0.9914448613738106 0.0
  outer loop
    vertex 129.27039823423115 36.824838700717514 15.0
    vertex 130.02097346502845 36.72602359695581 5.000000000000001
    vertex 129.27039823423115 36.824838700717514 5.000000000000001
  endloop
endfacet
facet normal 0.13052619222005069 0.9914448613738106 0.0
  outer loop
    vertex 130.02097346502845 36.72602359695581 5.000000000000001
    vertex 129.27039823423115 36.824838700717514 15.0
    vertex 130.02097346502845 36.72602359695581 15.0
  endloop
endfacet
facet normal -0.130526192220058 0.9914448613738097 0.0
  outer loop
    vertex 130.02097346502845 36.72602359695581 15.0
    vertex 130.77154869582577 36.82483870071752 5.000000000000001
    vertex 130.02097346502845 36.72602359695581 5.000000000000001
  endloop
endfacet
facet normal -0.130526192220058 0.9914448613738097 0.0
  outer loop
    vertex 130.77154869582577 36.82483870071752 5.000000000000001
    vertex 130.02097346502845 36.72602359695581 15.0
    vertex 130.77154869582577 36.82483870071752 15.0
  endloop
endfacet
facet normal -0.3826834323650787 0.9238795325112915 0.0
  outer loop
    vertex 130.77154869582577 36.82483870071752 15.0
    vertex 131.47097346502846 37.114549925980945 5.000000000000001
    vertex 130.77154869582577 36.82483870071752 5.000000000000001
  endloop
endfacet
facet normal -0.3826834323650787 0.9238795325112915 0.0
  outer loop
    vertex 131.47097346502846 37.114549925980945 5.000000000000001
    vertex 130.77154869582577 36.82483870071752 15.0
    vertex 131.47097346502846 37.114549925980945 15.0
  endloop
endfacet
facet normal -0.6087614290087312 0.7933533402912271 0.0
  outer loop
    vertex 131.47097346502846 37.114549925980945 15.0
    vertex 131.82097346502846 37.38311437177358 5.000000000000001
    vertex 131.47097346502846 37.114549925980945 5.000000000000001
  endloop
endfacet
facet normal -0.6087614290087312 0.7933533402912271 0.0
  outer loop
    vertex 131.82097346502846 37.38311437177358 5.000000000000001
    vertex 131.47097346502846 37.114549925980945 15.0
    vertex 131.82097346502846 37.38311437177358 15.0
  endloop
endfacet
facet normal -1.0 0.0 0.0
  outer loop
    vertex 131.82097346502846 41.868932822138056 15.0
    vertex 131.82097346502846 37.38311437177358 5.000000000000001
    vertex 131.82097346502846 37.38311437177358 15.0
  endloop
endfacet
facet normal -1.0 0.0 0.0
  outer loop
    vertex 131.82097346502846 37.38311437177358 5.000000000000001
    vertex 131.82097346502846 41.868932822138056 15.0
    vertex 131.82097346502846 41.868932822138056 5.000000000000001
  endloop
endfacet
facet normal -0.6087614290087312 -0.7933533402912271 -0.0
  outer loop
    vertex 131.82097346502846 41.868932822138056 15.0
    vertex 131.47097346502846 42.13749726793069 5.000000000000001
    vertex 131.82097346502846 41.868932822138056 5.000000000000001
  endloop
endfacet
facet normal -0.6087614290087312 -0.7933533402912271 -0.0
  outer loop
    vertex 131.47097346502846 42.13749726793069 5.000000000000001
    vertex 131.82097346502846 41.868932822138056 15.0
    vertex 131.47097346502846 42.13749726793069 15.0
  endloop
endfacet
facet normal -0.382683432365085 -0.9238795325112887 -0.0
  outer loop
    vertex 131.47097346502846 42.13749726793069 15.0
    vertex 130.77154869582577 42.427208493194115 5.000000000000001
    vertex 131.47097346502846 42.13749726793069 5.000000000000001
  endloop
endfacet
facet normal -0.382683432365085 -0.9238795325112887 -0.0
  outer loop
    vertex 130.77154869582577 42.427208493194115 5.000000000000001
    vertex 131.47097346502846 42.13749726793069 15.0
    vertex 130.77154869582577 42.427208493194115 15.0
  endloop
endfacet
facet normal -0.13052619222005069 -0.9914448613738106 -0.0
  outer loop
    vertex 130.77154869582577 42.427208493194115 15.0
    vertex 130.02097346502845 42.52602359695582 5.000000000000001
    vertex 130.77154869582577 42.427208493194115 5.000000000000001
  endloop
endfacet
facet normal -0.13052619222005069 -0.9914448613738106 -0.0
  outer loop
    vertex 130.02097346502845 42.52602359695582 5.000000000000001
    vertex 130.77154869582577 42.427208493194115 15.0
    vertex 130.02097346502845 42.52602359695582 15.0
  endloop
endfacet
facet normal 0.13052619222005069 -0.9914448613738106 0.0
  outer loop
    vertex 130.02097346502845 42.52602359695582 15.0
    vertex 129.27039823423115 42.427208493194115 5.000000000000001
    vertex 130.02097346502845 42.52602359695582 5.000000000000001
  endloop
endfacet
facet normal 0.13052619222005069 -0.9914448613738106 0.0
  outer loop
    vertex 129.27039823423115 42.427208493194115 5.000000000000001
    vertex 130.02097346502845 42.52602359695582 15.0
    vertex 129.27039823423115 42.427208493194115 15.0
  endloop
endfacet
facet normal 0.382683432365085 -0.9238795325112887 0.0
  outer loop
    vertex 129.27039823423115 42.427208493194115 15.0
    vertex 128.57097346502846 42.13749726793069 5.000000000000001
    vertex 129.27039823423115 42.427208493194115 5.000000000000001
  endloop
endfacet
facet normal 0.382683432365085 -0.9238795325112887 0.0
  outer loop
    vertex 128.57097346502846 42.13749726793069 5.000000000000001
    vertex 129.27039823423115 42.427208493194115 15.0
    vertex 128.57097346502846 42.13749726793069 15.0
  endloop
endfacet
endsolid Attitude indicator1
