solid Attitude indicator1
facet normal -0.9970544855015827 -0.07669649888472434 -1.423398782169891e-14
  outer loop
    vertex 41.93717949582457 16.33196670615118 74.7103592763566
    vertex 42.93717949582439 3.3319667061511513 75.7103592763566
    vertex 41.93717949582455 16.33196670615118 75.7103592763566
  endloop
endfacet
facet normal -0.9970544855015827 -0.07669649888472434 -1.423398782169891e-14
  outer loop
    vertex 42.93717949582439 3.3319667061511513 75.7103592763566
    vertex 41.93717949582457 16.33196670615118 74.7103592763566
    vertex 42.78333334197827 5.331966706151148 75.2103592763566
  endloop
endfacet
facet normal -0.9970544855015827 -0.07669649888472434 -1.423398782169891e-14
  outer loop
    vertex 42.93717949582439 3.3319667061511513 75.7103592763566
    vertex 42.78333334197827 5.331966706151148 75.2103592763566
    vertex 42.9371794958244 3.3319667061511566 75.21035927635661
  endloop
endfacet
facet normal -0.9970544855015827 -0.07669649888472434 -1.423398782169891e-14
  outer loop
    vertex 42.78333334197827 5.331966706151148 75.2103592763566
    vertex 41.93717949582457 16.33196670615118 74.7103592763566
    vertex 42.78333334197827 5.331966706151148 74.7103592763566
  endloop
endfacet
facet normal -1.0 1.3051669120467437e-14 -1.279493004602284e-14
  outer loop
    vertex 39.93717949582476 31.331966706151185 74.71035927635657
    vertex 39.9371794958247 27.331966706151192 75.71035927635657
    vertex 39.93717949582476 31.331966706151185 75.71035927635657
  endloop
endfacet
facet normal -1.0 1.3051669120467437e-14 -1.279493004602284e-14
  outer loop
    vertex 39.9371794958247 27.331966706151192 75.71035927635657
    vertex 39.93717949582476 31.331966706151185 74.71035927635657
    vertex 39.93717949582471 27.331966706151192 74.71035927635657
  endloop
endfacet
facet normal 0.9970544855015807 -0.07669649888474966 1.370039354672149e-14
  outer loop
    vertex 44.93717949582441 3.331966706151123 75.21035927635666
    vertex 45.93717949582456 16.331966706151128 75.71035927635664
    vertex 44.93717949582438 3.331966706151123 75.71035927635663
  endloop
endfacet
facet normal 0.9970544855015807 -0.07669649888474966 1.370039354672149e-14
  outer loop
    vertex 45.93717949582456 16.331966706151128 75.71035927635664
    vertex 44.93717949582441 3.331966706151123 75.21035927635666
    vertex 45.09102564967058 5.331966706151125 75.21035927635663
  endloop
endfacet
facet normal 0.9970544855015807 -0.07669649888474966 1.370039354672149e-14
  outer loop
    vertex 45.93717949582456 16.331966706151128 75.71035927635664
    vertex 45.09102564967058 5.331966706151125 75.21035927635663
    vertex 45.937179495824566 16.331966706151128 74.71035927635664
  endloop
endfacet
facet normal 0.9970544855015807 -0.07669649888474966 1.370039354672149e-14
  outer loop
    vertex 45.937179495824566 16.331966706151128 74.71035927635664
    vertex 45.09102564967058 5.331966706151125 75.21035927635663
    vertex 45.09102564967058 5.331966706151119 74.71035927635663
  endloop
endfacet
facet normal -1.3051669120467434e-14 -1.0 -2.7061686225238605e-16
  outer loop
    vertex 39.9371794958247 27.331966706151192 75.71035927635657
    vertex 41.937179495824715 27.331966706151164 74.7103592763566
    vertex 41.93717949582471 27.331966706151164 75.7103592763566
  endloop
endfacet
facet normal -1.3051669120467434e-14 -1.0 -2.7061686225238605e-16
  outer loop
    vertex 41.937179495824715 27.331966706151164 74.7103592763566
    vertex 39.9371794958247 27.331966706151192 75.71035927635657
    vertex 39.93717949582471 27.331966706151192 74.71035927635657
  endloop
endfacet
facet normal 1.2753434671966805e-14 4.683336561120295e-16 -1.0
  outer loop
    vertex 45.937179495824566 16.331966706151128 74.71035927635664
    vertex 41.937179495824715 27.331966706151164 74.7103592763566
    vertex 45.93717949582471 27.331966706151114 74.71035927635666
  endloop
endfacet
facet normal 1.2753434671966805e-14 4.683336561120295e-16 -1.0
  outer loop
    vertex 41.937179495824715 27.331966706151164 74.7103592763566
    vertex 45.937179495824566 16.331966706151128 74.71035927635664
    vertex 41.93717949582457 16.33196670615118 74.7103592763566
  endloop
endfacet
facet normal 1.2753434671966805e-14 4.683336561120295e-16 -1.0
  outer loop
    vertex 41.93717949582457 16.33196670615118 74.7103592763566
    vertex 45.937179495824566 16.331966706151128 74.71035927635664
    vertex 45.09102564967058 5.331966706151119 74.71035927635663
  endloop
endfacet
facet normal 1.2753434671966805e-14 4.683336561120295e-16 -1.0
  outer loop
    vertex 41.93717949582457 16.33196670615118 74.7103592763566
    vertex 45.09102564967058 5.331966706151119 74.71035927635663
    vertex 42.78333334197827 5.331966706151148 74.7103592763566
  endloop
endfacet
facet normal 1.2753434671966805e-14 4.683336561120295e-16 -1.0
  outer loop
    vertex 47.937179495824715 27.331966706151086 74.71035927635667
    vertex 39.93717949582476 31.331966706151185 74.71035927635657
    vertex 47.93717949582476 31.33196670615108 74.71035927635667
  endloop
endfacet
facet normal 1.2753434671966805e-14 4.683336561120295e-16 -1.0
  outer loop
    vertex 39.93717949582476 31.331966706151185 74.71035927635657
    vertex 47.937179495824715 27.331966706151086 74.71035927635667
    vertex 39.93717949582471 27.331966706151192 74.71035927635657
  endloop
endfacet
facet normal 1.2753434671966805e-14 4.683336561120295e-16 -1.0
  outer loop
    vertex 39.93717949582471 27.331966706151192 74.71035927635657
    vertex 47.937179495824715 27.331966706151086 74.71035927635667
    vertex 45.93717949582471 27.331966706151114 74.71035927635666
  endloop
endfacet
facet normal 1.2753434671966805e-14 4.683336561120295e-16 -1.0
  outer loop
    vertex 39.93717949582471 27.331966706151192 74.71035927635657
    vertex 45.93717949582471 27.331966706151114 74.71035927635666
    vertex 41.937179495824715 27.331966706151164 74.7103592763566
  endloop
endfacet
facet normal -1.0 1.3051669120467437e-14 -1.279493004602284e-14
  outer loop
    vertex 41.437179495824445 3.3319667061511624 70.7103592763566
    vertex 41.43717949582438 2.33196670615117 75.71035927635658
    vertex 41.43717949582439 3.3319667061511624 75.71035927635658
  endloop
endfacet
facet normal -1.0 1.3051669120467437e-14 -1.279493004602284e-14
  outer loop
    vertex 41.43717949582438 2.33196670615117 75.71035927635658
    vertex 41.437179495824445 3.3319667061511624 70.7103592763566
    vertex 41.43717949582444 2.33196670615117 70.7103592763566
  endloop
endfacet
facet normal 9.261231420558093e-15 6.278800963081617e-17 -1.0
  outer loop
    vertex 44.93717949582443 3.331966706151117 70.71035927635663
    vertex 41.437179495824445 3.3319667061511624 70.7103592763566
    vertex 42.937179495824445 3.3319667061511513 70.7103592763566
  endloop
endfacet
facet normal 9.261231420558093e-15 6.278800963081617e-17 -1.0
  outer loop
    vertex 41.437179495824445 3.3319667061511624 70.7103592763566
    vertex 44.93717949582443 3.331966706151117 70.71035927635663
    vertex 46.437179495824424 3.3179727061511026 70.71035927635664
  endloop
endfacet
facet normal 9.261231420558093e-15 6.278800963081617e-17 -1.0
  outer loop
    vertex 41.437179495824445 3.3319667061511624 70.7103592763566
    vertex 46.437179495824424 3.3179727061511026 70.71035927635664
    vertex 41.43717949582444 2.33196670615117 70.7103592763566
  endloop
endfacet
facet normal 9.261231420558093e-15 6.278800963081617e-17 -1.0
  outer loop
    vertex 41.43717949582444 2.33196670615117 70.7103592763566
    vertex 46.437179495824424 3.3179727061511026 70.71035927635664
    vertex 46.43717949582443 2.3319667061511025 70.71035927635664
  endloop
endfacet
facet normal 1.3051669120467434e-14 1.0 2.7061686225238605e-16
  outer loop
    vertex 44.93717949582443 3.331966706151117 70.71035927635663
    vertex 44.93717949582441 3.331966706151123 75.21035927635666
    vertex 46.437179495824424 3.3179727061511026 70.71035927635664
  endloop
endfacet
facet normal 1.3051669120467434e-14 1.0 2.7061686225238605e-16
  outer loop
    vertex 46.437179495824424 3.3179727061511026 70.71035927635664
    vertex 44.93717949582438 3.331966706151123 75.71035927635663
    vertex 46.437179495824374 3.3179727061511026 75.71035927635664
  endloop
endfacet
facet normal 1.3051669120467434e-14 1.0 2.7061686225238605e-16
  outer loop
    vertex 44.93717949582438 3.331966706151123 75.71035927635663
    vertex 46.437179495824424 3.3179727061511026 70.71035927635664
    vertex 44.93717949582441 3.331966706151123 75.21035927635666
  endloop
endfacet
facet normal 1.0 -1.3051669120467437e-14 1.279493004602284e-14
  outer loop
    vertex 46.43717949582443 2.3319667061511025 70.71035927635664
    vertex 46.437179495824374 3.3179727061511026 75.71035927635664
    vertex 46.437179495824374 2.3319667061511025 75.71035927635664
  endloop
endfacet
facet normal 1.0 -1.3051669120467437e-14 1.279493004602284e-14
  outer loop
    vertex 46.437179495824374 3.3179727061511026 75.71035927635664
    vertex 46.43717949582443 2.3319667061511025 70.71035927635664
    vertex 46.437179495824424 3.3179727061511026 70.71035927635664
  endloop
endfacet
facet normal -1.0 1.3051669120467437e-14 -1.279493004602284e-14
  outer loop
    vertex 41.937179495824715 27.331966706151164 74.7103592763566
    vertex 41.93717949582455 16.33196670615118 75.7103592763566
    vertex 41.93717949582471 27.331966706151164 75.7103592763566
  endloop
endfacet
facet normal -1.0 1.3051669120467437e-14 -1.279493004602284e-14
  outer loop
    vertex 41.93717949582455 16.33196670615118 75.7103592763566
    vertex 41.937179495824715 27.331966706151164 74.7103592763566
    vertex 41.93717949582457 16.33196670615118 74.7103592763566
  endloop
endfacet
facet normal 1.0 -1.3051669120467437e-14 1.279493004602284e-14
  outer loop
    vertex 47.937179495824715 27.331966706151086 74.71035927635667
    vertex 47.93717949582475 31.33196670615108 75.71035927635667
    vertex 47.93717949582471 27.331966706151086 75.71035927635667
  endloop
endfacet
facet normal 1.0 -1.3051669120467437e-14 1.279493004602284e-14
  outer loop
    vertex 47.93717949582475 31.33196670615108 75.71035927635667
    vertex 47.937179495824715 27.331966706151086 74.71035927635667
    vertex 47.93717949582476 31.33196670615108 74.71035927635667
  endloop
endfacet
facet normal -1.3051669120467434e-14 -1.0 -2.7061686225238605e-16
  outer loop
    vertex 45.9371794958247 27.331966706151114 75.71035927635666
    vertex 47.937179495824715 27.331966706151086 74.71035927635667
    vertex 47.93717949582471 27.331966706151086 75.71035927635667
  endloop
endfacet
facet normal -1.3051669120467434e-14 -1.0 -2.7061686225238605e-16
  outer loop
    vertex 47.937179495824715 27.331966706151086 74.71035927635667
    vertex 45.9371794958247 27.331966706151114 75.71035927635666
    vertex 45.93717949582471 27.331966706151114 74.71035927635666
  endloop
endfacet
facet normal 1.0 -1.3051669120467437e-14 1.279493004602284e-14
  outer loop
    vertex 45.937179495824566 16.331966706151128 74.71035927635664
    vertex 45.9371794958247 27.331966706151114 75.71035927635666
    vertex 45.93717949582456 16.331966706151128 75.71035927635664
  endloop
endfacet
facet normal 1.0 -1.3051669120467437e-14 1.279493004602284e-14
  outer loop
    vertex 45.9371794958247 27.331966706151114 75.71035927635666
    vertex 45.937179495824566 16.331966706151128 74.71035927635664
    vertex 45.93717949582471 27.331966706151114 74.71035927635666
  endloop
endfacet
facet normal 1.3051669120467434e-14 1.0 2.7061686225238605e-16
  outer loop
    vertex 47.93717949582476 31.33196670615108 74.71035927635667
    vertex 39.93717949582476 31.331966706151185 75.71035927635657
    vertex 47.93717949582475 31.33196670615108 75.71035927635667
  endloop
endfacet
facet normal 1.3051669120467434e-14 1.0 2.7061686225238605e-16
  outer loop
    vertex 39.93717949582476 31.331966706151185 75.71035927635657
    vertex 47.93717949582476 31.33196670615108 74.71035927635667
    vertex 39.93717949582476 31.331966706151185 74.71035927635657
  endloop
endfacet
facet normal -1.2365624929598185e-14 -3.4362492846627636e-16 1.0
  outer loop
    vertex 41.93717949582455 16.33196670615118 75.7103592763566
    vertex 45.9371794958247 27.331966706151114 75.71035927635666
    vertex 41.93717949582471 27.331966706151164 75.7103592763566
  endloop
endfacet
facet normal -1.2365624929598185e-14 -3.4362492846627636e-16 1.0
  outer loop
    vertex 45.9371794958247 27.331966706151114 75.71035927635666
    vertex 41.93717949582455 16.33196670615118 75.7103592763566
    vertex 45.93717949582456 16.331966706151128 75.71035927635664
  endloop
endfacet
facet normal -1.2365624929598185e-14 -3.4362492846627636e-16 1.0
  outer loop
    vertex 45.93717949582456 16.331966706151128 75.71035927635664
    vertex 41.93717949582455 16.33196670615118 75.7103592763566
    vertex 42.93717949582439 3.3319667061511513 75.7103592763566
  endloop
endfacet
facet normal -1.2365624929598185e-14 -3.4362492846627636e-16 1.0
  outer loop
    vertex 45.93717949582456 16.331966706151128 75.71035927635664
    vertex 42.93717949582439 3.3319667061511513 75.7103592763566
    vertex 44.93717949582438 3.331966706151123 75.71035927635663
  endloop
endfacet
facet normal -1.2365624929598185e-14 -3.4362492846627636e-16 1.0
  outer loop
    vertex 44.93717949582438 3.331966706151123 75.71035927635663
    vertex 42.93717949582439 3.3319667061511513 75.7103592763566
    vertex 41.43717949582439 3.3319667061511624 75.71035927635658
  endloop
endfacet
facet normal -1.2365624929598185e-14 -3.4362492846627636e-16 1.0
  outer loop
    vertex 44.93717949582438 3.331966706151123 75.71035927635663
    vertex 41.43717949582439 3.3319667061511624 75.71035927635658
    vertex 46.437179495824374 3.3179727061511026 75.71035927635664
  endloop
endfacet
facet normal -1.2365624929598185e-14 -3.4362492846627636e-16 1.0
  outer loop
    vertex 46.437179495824374 3.3179727061511026 75.71035927635664
    vertex 41.43717949582439 3.3319667061511624 75.71035927635658
    vertex 41.43717949582438 2.33196670615117 75.71035927635658
  endloop
endfacet
facet normal -1.2365624929598185e-14 -3.4362492846627636e-16 1.0
  outer loop
    vertex 46.437179495824374 3.3179727061511026 75.71035927635664
    vertex 41.43717949582438 2.33196670615117 75.71035927635658
    vertex 46.437179495824374 2.3319667061511025 75.71035927635664
  endloop
endfacet
facet normal -1.2365624929598185e-14 -3.4362492846627636e-16 1.0
  outer loop
    vertex 39.9371794958247 27.331966706151192 75.71035927635657
    vertex 47.93717949582475 31.33196670615108 75.71035927635667
    vertex 39.93717949582476 31.331966706151185 75.71035927635657
  endloop
endfacet
facet normal -1.2365624929598185e-14 -3.4362492846627636e-16 1.0
  outer loop
    vertex 47.93717949582475 31.33196670615108 75.71035927635667
    vertex 39.9371794958247 27.331966706151192 75.71035927635657
    vertex 47.93717949582471 27.331966706151086 75.71035927635667
  endloop
endfacet
facet normal -1.2365624929598185e-14 -3.4362492846627636e-16 1.0
  outer loop
    vertex 47.93717949582471 27.331966706151086 75.71035927635667
    vertex 39.9371794958247 27.331966706151192 75.71035927635657
    vertex 41.93717949582471 27.331966706151164 75.7103592763566
  endloop
endfacet
facet normal -1.2365624929598185e-14 -3.4362492846627636e-16 1.0
  outer loop
    vertex 47.93717949582471 27.331966706151086 75.71035927635667
    vertex 41.93717949582471 27.331966706151164 75.7103592763566
    vertex 45.9371794958247 27.331966706151114 75.71035927635666
  endloop
endfacet
facet normal -1.3051669120467434e-14 -1.0 -2.7061686225238605e-16
  outer loop
    vertex 41.43717949582438 2.33196670615117 75.71035927635658
    vertex 46.43717949582443 2.3319667061511025 70.71035927635664
    vertex 46.437179495824374 2.3319667061511025 75.71035927635664
  endloop
endfacet
facet normal -1.3051669120467434e-14 -1.0 -2.7061686225238605e-16
  outer loop
    vertex 46.43717949582443 2.3319667061511025 70.71035927635664
    vertex 41.43717949582438 2.33196670615117 75.71035927635658
    vertex 41.43717949582444 2.33196670615117 70.7103592763566
  endloop
endfacet
facet normal 1.5631489334732352e-14 -1.1279865930191724e-14 -1.0
  outer loop
    vertex 44.93717949582441 3.331966706151123 75.21035927635666
    vertex 42.78333334197827 5.331966706151148 75.2103592763566
    vertex 45.09102564967058 5.331966706151125 75.21035927635663
  endloop
endfacet
facet normal 1.5631489334732352e-14 -1.1279865930191724e-14 -1.0
  outer loop
    vertex 42.78333334197827 5.331966706151148 75.2103592763566
    vertex 44.93717949582441 3.331966706151123 75.21035927635666
    vertex 42.9371794958244 3.3319667061511566 75.21035927635661
  endloop
endfacet
facet normal -1.2219854757707674e-14 -1.0 8.057047092993944e-15
  outer loop
    vertex 42.78333334197827 5.331966706151148 75.2103592763566
    vertex 45.09102564967058 5.331966706151119 74.71035927635663
    vertex 45.09102564967058 5.331966706151125 75.21035927635663
  endloop
endfacet
facet normal -1.2219854757707674e-14 -1.0 8.057047092993944e-15
  outer loop
    vertex 45.09102564967058 5.331966706151119 74.71035927635663
    vertex 42.78333334197827 5.331966706151148 75.2103592763566
    vertex 42.78333334197827 5.331966706151148 74.7103592763566
  endloop
endfacet
facet normal 1.0359696144219599e-14 1.0 -2.208407486331536e-16
  outer loop
    vertex 42.937179495824445 3.3319667061511513 70.7103592763566
    vertex 42.93717949582439 3.3319667061511513 75.7103592763566
    vertex 42.9371794958244 3.3319667061511566 75.21035927635661
  endloop
endfacet
facet normal 1.0359696144219599e-14 1.0 -2.208407486331536e-16
  outer loop
    vertex 42.93717949582439 3.3319667061511513 75.7103592763566
    vertex 42.937179495824445 3.3319667061511513 70.7103592763566
    vertex 41.43717949582439 3.3319667061511624 75.71035927635658
  endloop
endfacet
facet normal 1.0359696144219599e-14 1.0 -2.208407486331536e-16
  outer loop
    vertex 41.43717949582439 3.3319667061511624 75.71035927635658
    vertex 42.937179495824445 3.3319667061511513 70.7103592763566
    vertex 41.437179495824445 3.3319667061511624 70.7103592763566
  endloop
endfacet
facet normal 1.4628576128217265e-14 1.0 -1.331650838980836e-15
  outer loop
    vertex 44.93717949582443 3.331966706151117 70.71035927635663
    vertex 42.9371794958244 3.3319667061511566 75.21035927635661
    vertex 44.93717949582441 3.331966706151123 75.21035927635666
  endloop
endfacet
facet normal 1.4628576128217265e-14 1.0 -1.331650838980836e-15
  outer loop
    vertex 42.9371794958244 3.3319667061511566 75.21035927635661
    vertex 44.93717949582443 3.331966706151117 70.71035927635663
    vertex 42.937179495824445 3.3319667061511513 70.7103592763566
  endloop
endfacet
endsolid Attitude indicator1
