solid Attitude indicator1
facet normal -1.0 0.0 0.0
  outer loop
    vertex 108.17647819882976 58.59524318415221 1.9999999999999998
    vertex 108.17647819882976 54.59524318415222 0.0
    vertex 108.17647819882976 54.59524318415222 1.9999999999999998
  endloop
endfacet
facet normal -1.0 0.0 0.0
  outer loop
    vertex 108.17647819882976 54.59524318415222 0.0
    vertex 108.17647819882976 58.59524318415221 1.9999999999999998
    vertex 108.17647819882976 58.59524318415221 0.0
  endloop
endfacet
facet normal 0.0 0.0 -1.0
  outer loop
    vertex 113.17647819882974 58.59524318415221 0.0
    vertex 108.17647819882976 54.59524318415222 0.0
    vertex 108.17647819882976 58.59524318415221 0.0
  endloop
endfacet
facet normal 0.0 0.0 -1.0
  outer loop
    vertex 108.17647819882976 54.59524318415222 0.0
    vertex 113.17647819882974 58.59524318415221 0.0
    vertex 113.17647819882974 54.59524318415222 0.0
  endloop
endfacet
facet normal -0.0 -1.0 -0.0
  outer loop
    vertex 113.17647819882974 54.59524318415222 1.9999999999999998
    vertex 108.17647819882976 54.59524318415222 0.0
    vertex 113.17647819882974 54.59524318415222 0.0
  endloop
endfacet
facet normal -0.0 -1.0 -0.0
  outer loop
    vertex 108.17647819882976 54.59524318415222 0.0
    vertex 113.17647819882974 54.59524318415222 1.9999999999999998
    vertex 108.17647819882976 54.59524318415222 1.9999999999999998
  endloop
endfacet
facet normal 0.0 1.0 0.0
  outer loop
    vertex 108.17647819882976 58.59524318415221 1.9999999999999998
    vertex 113.17647819882974 58.59524318415221 0.0
    vertex 108.17647819882976 58.59524318415221 0.0
  endloop
endfacet
facet normal 0.0 1.0 0.0
  outer loop
    vertex 113.17647819882974 58.59524318415221 0.0
    vertex 108.17647819882976 58.59524318415221 1.9999999999999998
    vertex 113.17647819882974 58.59524318415221 1.9999999999999998
  endloop
endfacet
facet normal 0.0 0.0 1.0
  outer loop
    vertex 113.17647819882974 54.59524318415222 1.9999999999999998
    vertex 108.17647819882976 58.59524318415221 1.9999999999999998
    vertex 108.17647819882976 54.59524318415222 1.9999999999999998
  endloop
endfacet
facet normal 0.0 0.0 1.0
  outer loop
    vertex 108.17647819882976 58.59524318415221 1.9999999999999998
    vertex 113.17647819882974 54.59524318415222 1.9999999999999998
    vertex 113.17647819882974 58.59524318415221 1.9999999999999998
  endloop
endfacet
facet normal 1.0 0.0 0.0
  outer loop
    vertex 113.17647819882974 58.59524318415221 0.0
    vertex 113.17647819882974 54.59524318415222 1.9999999999999998
    vertex 113.17647819882974 54.59524318415222 0.0
  endloop
endfacet
facet normal 1.0 0.0 0.0
  outer loop
    vertex 113.17647819882974 54.59524318415222 1.9999999999999998
    vertex 113.17647819882974 58.59524318415221 0.0
    vertex 113.17647819882974 58.59524318415221 1.9999999999999998
  endloop
endfacet
endsolid Attitude indicator1
